<svg id="logo-UoT" xmlns="http://www.w3.org/2000/svg" xmlns:xlink="http://www.w3.org/1999/xlink" width="295.92" height="57.698" viewBox="0 0 295.92 57.698">
  <defs>
    <clipPath id="clip-path">
      <rect id="Rectangle_2996" data-name="Rectangle 2996" width="295.92" height="57.698" transform="translate(0 0)" fill="none"/>
    </clipPath>
    <clipPath id="clip-path-2">
      <rect id="Rectangle_2997" data-name="Rectangle 2997" width="295.526" height="57.547" transform="translate(0 0.098)" fill="none"/>
    </clipPath>
  </defs>
  <g id="Group_3880" data-name="Group 3880">
    <g id="Group_3879" data-name="Group 3879" clip-path="url(#clip-path)">
      <path id="Path_3932" data-name="Path 3932" d="M246.609,42.791a5.053,5.053,0,0,0,5.07,5.148,5.339,5.339,0,0,0,5.376-5.148,5.087,5.087,0,0,0-5.227-5.044,5.265,5.265,0,0,0-5.219,5.044m1.749-.8c0-1.717,1.031-3.462,2.995-3.462,2.468,0,3.946,2.644,3.946,5.2,0,1.639-1.132,3.408-2.949,3.408-2.5,0-3.992-2.614-3.992-5.147m-3.275-4.325h-.313l-.02.033c-.052.067-.145.187-.665.211l-1.992.024H239.3l-2.177-.024c-.519-.024-.612-.144-.661-.211l-.029-.033h-.363l-.019.053c-.044.1-.724,1.854-.748,1.96l-.021.06.465.277.036-.092c.305-.816.641-1.2,2.376-1.2a12.352,12.352,0,0,1,1.335.069c.108,1.331.126,2.614.126,3.587,0,.934-.03,3.68-.129,4.271-.036.213-.1.352-.949.5l-.613.078-.242.028.107.548.821-.054.23-.014,1.6-.038.252,0,.883.008.676.025.716.025.012-.074.054-.488-.443-.045-.107-.012a1.729,1.729,0,0,1-.847-.269c-.108-.121-.3-.757-.3-3.6l.047-2.029.05-2.308c0-.2,0-.21.913-.21l.034.008.541-.008h.118c1.605,0,1.729.334,2,1.064l.091.23.459-.273-.114-.522c-.153-.772-.291-1.418-.323-1.5l-.026-.053Zm-14.53.14,1.036.072c.242.019,1,.024,2.06.024h.08v.527h-.08c-.544,0-1.117.111-1.2.777-.068.378-.128,3.473-.128,4.793,0,.892,0,2.944.052,3.738l0,.088-.639.013-.025-.03-7.092-7.389c-.005.229-.016.577-.016.577l-.053,4.066c-.023,1.6-.023,1.805,1.849,2.133l.069.012v.479l-.008.087-.765-.052-1.1-.051-2.289.1v-.515l.637-.138c.356-.069.566-.111.638-.673s.145-2.489.145-3.119l.026-1.711c.05-2.787-.16-2.938-1.526-3.191l-.062-.012,0-.476-.008-.089.695.053.735.023,1.089-.023.028.028s6.687,6.977,6.819,7.116c.008-.269-.02-2.64-.02-2.64-.051-3.924.248-3.963-1.655-4.072l-.087-.006.1-.489a4.2,4.2,0,0,1,.685-.033m-15.323-.064a5.082,5.082,0,0,1,5.223,5.044,5.335,5.335,0,0,1-5.374,5.148,5.052,5.052,0,0,1-5.067-5.148,5.266,5.266,0,0,1,5.218-5.044m.524,9.4c1.82,0,2.947-1.769,2.947-3.408,0-2.557-1.475-5.2-3.941-5.2-1.969,0-3,1.745-3,3.462,0,2.533,1.491,5.147,3.994,5.147m-12.207-9.326c2.077,0,3.528,1.1,3.528,2.686a2.762,2.762,0,0,1-2.2,2.455,20.842,20.842,0,0,0,3.15,3.947,2.553,2.553,0,0,0,1.439.672l.077.01-.034.519h-.077a4.605,4.605,0,0,1-3.055-1,16.541,16.541,0,0,1-3.271-3.916c-.082,0-1.04-.04-1.19-.043V44.9a6.865,6.865,0,0,0,.166,1.922c.1.189.9.417,1.32.541l.054.014.034.523-.1-.014a15.47,15.47,0,0,0-2.172-.169c-.336,0-1.869.093-2.2.118l-.069.007-.118-.443.092-.015c.2-.034,1.013-.231,1.2-.582a14.6,14.6,0,0,0,.145-2.775v-2.54c0-2.951-.124-2.957-1.314-3.029l-.083,0,.036-.576.146.012.881.044.911.023c.223,0,.8-.049,1.355-.1Zm-1.606,4.614a8.963,8.963,0,0,0,.981.039c.887,0,2.376-.241,2.376-1.845a2.161,2.161,0,0,0-2.352-2.112c-.958,0-.958.03-.983,1.678,0,0-.022,2.1-.022,2.24M191.8,37.747a5.079,5.079,0,0,1,5.217,5.044,5.334,5.334,0,0,1-5.369,5.148,5.056,5.056,0,0,1-5.073-5.148,5.269,5.269,0,0,1,5.225-5.044m.521,9.4c1.818,0,2.943-1.769,2.943-3.408,0-2.557-1.477-5.2-3.938-5.2-1.972,0-3,1.745-3,3.462,0,2.533,1.489,5.147,3.99,5.147m-7.268-9.472h-.313l-.026.034c-.045.066-.142.186-.66.21l-1.989.024h-2.795l-2.177-.024c-.519-.024-.606-.144-.659-.21l-.025-.034h-.368l-.019.053c-.041.1-.722,1.854-.749,1.96l-.013.06.457.277.035-.092c.313-.816.649-1.2,2.379-1.2a12.5,12.5,0,0,1,1.339.069c.1,1.331.118,2.614.118,3.587,0,.934-.026,3.68-.123,4.271-.035.213-.1.352-.951.5l-.612.078-.242.028.109.548.821-.054.226-.014,1.6-.038.255,0,.885.008.673.025.713.025.012-.074.061-.488-.448-.045-.106-.012a1.742,1.742,0,0,1-.848-.269c-.109-.121-.294-.757-.294-3.6l.044-2.029.054-2.308c0-.2,0-.21.913-.21l.029.008.541-.008h.12c1.61,0,1.734.334,2,1.064l.091.23.456-.273-.115-.522c-.156-.772-.289-1.418-.322-1.5l-.023-.053Zm-18.4.146a24.963,24.963,0,0,1-3.368.145l-1.686-.023-1.742-.048-.579.032-.445.047,0,.076v.341l.079.006c.441.022.85.062,1.032.325.253.385.279.781.279,4.245a34.44,34.44,0,0,1-.2,3.745c-.086.381-.627.517-1.027.582l-.061.015-.033.52.094-.01c.98-.072,2.045-.094,2.326-.094l.864.022,1.6.077v-.571l-.111-.01c-1.139-.108-1.521-.3-1.639-.447a3.235,3.235,0,0,1-.17-1.357c0-.18,0-.365.009-.544,0,0,.042-1.461.052-1.8l.815-.042a8.109,8.109,0,0,1,2.3.329c.15.05.286.363.348.805l.008.068h.494l0-.074a24.524,24.524,0,0,0,.057-2.782l0-.08h-.521l-.009.07c-.126.72-.172,1.015-2.1,1.015a8.986,8.986,0,0,1-1.316-.083l-.043-.005c-.017-.173-.025-.36-.025-.562,0-.222.005-.458.014-.7,0,0,.031-2.035.031-2.353.561-.065,1.047-.089,1.188-.089a4.591,4.591,0,0,1,2.41.492,1.67,1.67,0,0,1,.514.964l.014.067.547-.033,0-.084c-.015-.157.02-.692.054-1.168l.054-1.041Zm-15.062-.07a5.082,5.082,0,0,1,5.22,5.044,5.334,5.334,0,0,1-5.369,5.148,5.058,5.058,0,0,1-5.073-5.148,5.267,5.267,0,0,1,5.222-5.044m.521,9.4c1.818,0,2.943-1.769,2.943-3.408,0-2.557-1.472-5.2-3.934-5.2-1.974,0-3,1.745-3,3.462,0,2.533,1.495,5.147,3.994,5.147m-18.534-9.2v.489l.118,0c.495.024,1.178.055,1.178.447,0,.119-.211.694-2.085,3.382a24.181,24.181,0,0,1-2.592-3.526c0-.11,0-.233,1.134-.254l.083,0v-.574l-.945.017-1.818.032-1.972-.027v.529h.083a1.71,1.71,0,0,1,1.022.226,30.651,30.651,0,0,1,2.8,3.228c0,.009.856,1.087.935,1.193.05.7.1,1.475.1,2.43,0,1.47,0,1.776-1.384,1.822l-.078,0-.033.493.081.007c.2.015.841-.034,1.46-.078l1.055-.066.8.036.161.01,1.084.053,0-.087V47.32l-.075,0c-1.355-.118-1.372-.289-1.391-.552v-.1q-.048-.914-.049-2.016c0-.552.009-1.14.028-1.756.026-.041,1.95-2.944,1.95-2.944.614-.942.464-1.461,1.8-1.484l.078,0V37.9l-.075-.006a5.677,5.677,0,0,0-.689.039l-.639.032-.757-.04-.531-.031-.746-.025h-.087Zm-8.782-.276h-.318l-.021.034c-.048.066-.142.186-.658.21l-2,.024h-2.789l-2.176-.024c-.521-.024-.609-.144-.66-.21l-.024-.034h-.368l-.022.053c-.044.1-.722,1.854-.748,1.96l-.019.06.463.277.037-.092c.31-.816.643-1.2,2.378-1.2a12.414,12.414,0,0,1,1.335.069c.107,1.331.121,2.614.121,3.587,0,.934-.03,3.68-.121,4.271-.037.213-.1.352-.954.5l-.613.078-.237.028.1.548.826-.054.224-.014,1.6-.038.252,0,.887.008.672.025.716.025.012-.074.06-.488-.449-.045-.1-.012a1.724,1.724,0,0,1-.851-.269c-.107-.121-.3-.757-.3-3.6l.045-2.029.055-2.308c0-.2,0-.21.906-.21l.037.008.541-.008h.112c1.611,0,1.734.334,2.009,1.064l.085.23.459-.273-.115-.522c-.153-.772-.287-1.418-.323-1.5l-.021-.053Zm-16.585.3v.488l.078,0c1.3.046,1.509.309,1.614.576a28.48,28.48,0,0,1,.219,4.259v.172a12.042,12.042,0,0,1-.262,3.282c-.086.152-.422.419-1.7.515l-.074,0v.5l1.571-.051h1.44l2.4.075-.006-.091-.029-.463h-.078c-1.049,0-1.389-.019-1.514-.424a20.112,20.112,0,0,1-.1-2.772c0-3.832.024-4.843.236-5.215.262-.426,1.187-.37,1.461-.344l.091.01v-.582H112.38l-1.662.047-1.1-.032-.467-.015-.868-.024-.082,0ZM99.411,40.6c0,1.674,1.445,2.261,2.5,2.686l.088.035c1.8.726,2.628,1.057,2.628,2.292a1.566,1.566,0,0,1-1.75,1.51,3.651,3.651,0,0,1-2.312-.828,2.511,2.511,0,0,1-.763-1.4l-.016-.062h-.6l.03.1a7.142,7.142,0,0,1,.416,2.793v.08l.485.034.024-.056c.025-.056.105-.238.22-.238a4.427,4.427,0,0,1,.607.124l.069.018.145.042a3.783,3.783,0,0,0,1.219.179c2.423,0,3.73-1.459,3.73-2.831,0-1.931-1.924-2.684-3.19-3.18-1.209-.458-2.122-.885-2.122-1.858a1.645,1.645,0,0,1,1.847-1.6,2.74,2.74,0,0,1,1.882.744,2.144,2.144,0,0,1,.6,1.221l.012.064.071.022h.437l-.133-1.291a5.194,5.194,0,0,1,.15-1.16l.019-.088-.444-.066s-.268.181-.318.217a7,7,0,0,0-1.994-.31c-2.08,0-3.535,1.155-3.535,2.807m-7.022-2.783c2.078,0,3.531,1.1,3.531,2.686a2.76,2.76,0,0,1-2.206,2.455A21.226,21.226,0,0,0,96.865,46.9a2.57,2.57,0,0,0,1.44.675l.08.007-.035.519h-.077a4.584,4.584,0,0,1-3.053-1,16.443,16.443,0,0,1-3.278-3.916c-.078,0-1.039-.04-1.183-.043v1.312s0,.356,0,.448a6.68,6.68,0,0,0,.166,1.922,3.715,3.715,0,0,0,1.319.541l.056.014.032.523-.1-.014a15.547,15.547,0,0,0-2.174-.169c-.342,0-1.868.093-2.2.118l-.07.007L87.67,47.4l.088-.015c.2-.034,1.013-.231,1.2-.582a14.792,14.792,0,0,0,.143-2.775v-2.54c0-2.951-.127-2.957-1.311-3.029l-.084,0,.037-.576.149.012.877.045.911.022c.221,0,.8-.049,1.357-.1Zm-1.608,4.614a9.084,9.084,0,0,0,.984.039c.888,0,2.379-.241,2.379-1.845a2.163,2.163,0,0,0-2.351-2.112c-.959,0-.959.03-.988,1.678,0,0-.017,2.1-.024,2.24m-6.089-4.565c-1.222.069-3.142.1-4.414.1-.775,0-2.712-.047-3.427-.071l-.082,0v.494l.064.009c.843.145.9.166.955.354a18.993,18.993,0,0,1,.2,4.1,33.121,33.121,0,0,1-.222,3.964c-.061.331-.484.44-1.146.511l-.082.01.073.549.077-.01a39.1,39.1,0,0,1,3.913-.144l3.971.048.036-.059a5.264,5.264,0,0,0,.742-2.4l.017-.086-.477-.035-.019.055c-.336.9-1.008,1.829-3.424,1.829a4.018,4.018,0,0,1-1.691-.292,12.987,12.987,0,0,1-.115-1.892s-.02-1.47-.024-1.807A11.261,11.261,0,0,1,81.1,43c1.937,0,2.086.148,2.35,1.333l.017.064h.468v-.083a29.243,29.243,0,0,1,.051-2.961l.007-.087h-.526l-.014.061c-.193.722-.347.862-.628.9a18.486,18.486,0,0,1-3.141.1c0-.126-.045-1.3-.045-1.3a16.2,16.2,0,0,1,.167-2.3,15.167,15.167,0,0,1,1.912-.178c1.1,0,1.744.139,2.032.445a1.315,1.315,0,0,1,.22,1.036l0,.074.558.072v-.094c0-.106.072-.5.122-.783l.058-.363a5.908,5.908,0,0,0,.075-1V37.86Zm-21.505.113.029.426.067.01c1.336.166,1.386.169,2.468,2.365l2.236,4.509.019.042a22.223,22.223,0,0,1,1.145,2.641l.013.062h.491l.022-.054a20.619,20.619,0,0,1,1.362-3.2l2.406-4.675c.556-1.1.8-1.381,1.882-1.6l.064-.013V37.96l-.083,0c-.62.023-1.218.023-1.832,0l-1.891-.049-.007.072-.029.508.086,0c.5,0,1.162.063,1.162.591a3.554,3.554,0,0,1-.354,1.092l-.039.08c-.5,1.1-.805,1.7-1.136,2.343l-1.1,2.236s-.161.359-.255.56a47.428,47.428,0,0,1-3.064-6.624c0-.119.028-.134.84-.233l.256-.033v-.539l-1.523.007-.82-.007c-.573,0-1.732-.027-2.326-.071l-.1-.008Zm-6.706-.006v.488l.082,0c1.3.046,1.511.309,1.614.576A28.065,28.065,0,0,1,58.4,43.3v.172a12,12,0,0,1-.264,3.282c-.088.152-.425.419-1.7.515l-.076,0v.5l1.572-.051h1.441l2.4.075-.007-.091-.031-.463h-.076c-1.049,0-1.384-.019-1.511-.424a20.02,20.02,0,0,1-.094-2.772c0-3.832.021-4.846.237-5.215.262-.426,1.181-.37,1.461-.344l.09.01v-.582H60.663L59,37.962,57.9,37.93l-.468-.015-.868-.024-.088,0ZM51.5,37.811l1.041.072c.241.019.994.024,2.057.024h.082v.527H54.6c-.547,0-1.115.111-1.2.777-.069.378-.127,3.473-.127,4.793,0,.892,0,2.944.046,3.738l.011.088-.638.013-.024-.03-7.092-7.389c-.005.229-.019.577-.019.577l-.049,4.066c-.023,1.6-.026,1.805,1.847,2.133l.07.012v.479l-.008.087-.767-.052-1.1-.051-2.3.1V47.33l.007-.067.639-.138c.355-.069.567-.111.635-.673s.145-2.489.145-3.119l.021-1.711c.054-2.787-.154-2.938-1.519-3.191l-.062-.012.008-.476-.019-.089.7.053.731.023,1.092-.023.026.028s6.687,6.977,6.816,7.116c.011-.269-.017-2.64-.017-2.64-.051-3.924.245-3.963-1.653-4.072l-.092-.006.1-.489a4.11,4.11,0,0,1,.68-.033m-16.842.08.084,0v.564l-.079.005C33.13,38.6,33,38.613,33,42.021v1.833c0,1.06,0,3.269,2.8,3.269,3.074,0,3.3-1.981,3.3-5.247v-.865a4.858,4.858,0,0,0-.4-2.28,1.926,1.926,0,0,0-1.208-.242h-.082V38l0-.084.591.016,1.332.033,1.728-.04.219-.013-.035.55-.074,0c-1.154.068-1.163.354-1.183,1.042l0,.062-.024,1.42c-.072,4.71-.3,6.975-4.576,6.975-2.7,0-4.128-1.169-4.128-3.385l.123-3.205a6.129,6.129,0,0,0-.339-2.751c-.151-.107-.368-.107-1.018-.107h-.078l-.035-.54.078-.011c.2-.023,1.568-.047,2.244-.047l.571-.01c.628-.014,1.481-.031,1.861-.014" fill="#fff"/>
      <path id="Path_3933" data-name="Path 3933" d="M39.078,23.2a4.543,4.543,0,0,0-2.318-.4,5.079,5.079,0,0,0-.986.046c-.063,1.349-.125,3.984-.125,6.649,0,1.643.141,1.674.845,1.814.564.077.626.077.767.109l-.047.387c-.124,0-.47-.031-.8-.046-.329-.032-.642-.047-.736-.047a14.835,14.835,0,0,0-3.272.248l-.141-.4A5.086,5.086,0,0,0,33.8,31a25.7,25.7,0,0,0,.2-3.921,31.519,31.519,0,0,0-.157-4.231c-.438-.03-.642-.046-1.456-.046-1.988,0-2.113.279-2.364.915l-.391-.094a17,17,0,0,0,.626-1.781h.266a1.488,1.488,0,0,0,.626.185c.627.077,2.959.077,3.773.077,1.144,0,3.43-.015,4.4-.061a.59.59,0,0,0,.359-.093l.235.139a6.5,6.5,0,0,0-.439,1.628l-.469.077Z" fill="#fff"/>
      <path id="Path_3934" data-name="Path 3934" d="M48.457,28.409H48.1c-.188-1.333-.188-1.4-2.662-1.4a5.7,5.7,0,0,0-1.206.093c0,.217-.046,2-.046,2.046A9.243,9.243,0,0,0,44.37,31a11.811,11.811,0,0,0,2.161.219c2.349,0,2.772-1.195,2.975-1.753h.345a6.376,6.376,0,0,1-.674,2.372c-1.033-.062-1.707-.093-2.286-.124-.579-.016-1.08-.016-1.816-.016-1.44,0-2.114.031-3.648.14l.047-.4c.563-.108.877-.186.971-.7a42.751,42.751,0,0,0,.188-4.572c0-.387-.11-2.293-.11-2.727-.063-.852-.2-.93-.783-1.07a.8.8,0,0,1-.172-.046v-.263h4.947c1.1,0,1.645,0,2.662-.078.047,1.07-.188,2.062-.392,2.062-.077,0-.218-.032-.328-.047a2.564,2.564,0,0,0,.094-.6c0-.589-.657-.853-2.208-.853a14.544,14.544,0,0,0-1.973.171,17.929,17.929,0,0,0-.156,2.4c0,.341,0,.619.015,1.348.361.016.878.046,1.426.046a8.571,8.571,0,0,0,2.035-.17c.266-.108.407-.868.407-.883h.36Z" fill="#fff"/>
      <path id="Path_3935" data-name="Path 3935" d="M53.265,25.248c.031-.4.031-.883.031-1.1,0-1.271-.47-1.581-1.769-1.736l.016-.418c.109,0,.532.031.814.047a22.775,22.775,0,0,0,2.285.061c1.175,2.449,1.456,3.023,2.615,5.115.172.279,1.08,1.937,1.1,1.953.376-.713.376-.729.955-1.845l.814-1.549L61.986,22.1h2.677v.419c-1.158.171-1.393.264-1.393,1.891,0,.511.062,5.316.282,6.215.124.511.328.619,1.236.666v.4H62.862a21.99,21.99,0,0,0-2.348.063l-.047-.4c1.112-.294,1.44-.4,1.44-2.108,0-1.519-.094-3.642-.2-5.145h-.032c-1.988,3.719-2.723,5.316-3.71,7.563h-.329a24.087,24.087,0,0,0-2.286-4.835c-.407-.776-1.049-1.969-1.237-2.34h-.031c-.016.511-.031.588-.078,1.193-.126,1.565-.235,2.883-.235,4.261,0,1.008.062,1.24,1.424,1.458l-.031.341c-.391-.016-.752-.016-1.065-.016s-.594-.015-.845-.015c-.376,0-.705,0-1,.015l-.83.047.032-.372c1.487-.2,1.519-.9,1.628-2.775Z" fill="#fff"/>
      <path id="Path_3936" data-name="Path 3936" d="M73.7,28.409h-.36c-.188-1.333-.188-1.4-2.661-1.4a5.686,5.686,0,0,0-1.206.093c0,.217-.047,2-.047,2.046A9.152,9.152,0,0,0,69.612,31a11.8,11.8,0,0,0,2.16.219c2.349,0,2.772-1.195,2.975-1.753h.345a6.376,6.376,0,0,1-.674,2.372c-1.033-.062-1.706-.093-2.286-.124-.578-.016-1.08-.016-1.815-.016-1.441,0-2.115.031-3.649.14l.047-.4c.563-.108.877-.186.971-.7a42.75,42.75,0,0,0,.188-4.572c0-.387-.11-2.293-.11-2.727-.062-.852-.2-.93-.783-1.07a.767.767,0,0,1-.171-.046v-.263h4.946c1.1,0,1.645,0,2.662-.078.047,1.07-.187,2.062-.391,2.062-.078,0-.219-.032-.329-.047a2.564,2.564,0,0,0,.094-.6c0-.589-.657-.853-2.207-.853a14.544,14.544,0,0,0-1.973.171,17.933,17.933,0,0,0-.157,2.4c0,.341,0,.619.016,1.348.36.016.877.046,1.425.046a8.571,8.571,0,0,0,2.035-.17c.266-.108.407-.868.407-.883h.36Z" fill="#fff"/>
      <path id="Path_3937" data-name="Path 3937" d="M76.984,31.478c.673-.2.924-.31,1.033-.806.11-.419.141-3.968.141-4.758a22.488,22.488,0,0,0-.062-2.7c-.094-.7-.721-.712-1.05-.728l.063-.4c.22,0,1.143.016,1.331.016.2,0,.752-.031,1.284-.077.548-.047,1.08-.093,1.268-.093,2.568,0,3.554,1.426,3.554,2.588a2.8,2.8,0,0,1-2.145,2.5c1.754,3.317,2.96,4.726,4.541,4.851v.4c-1.519.03-3.711.03-6.278-5.069a8.98,8.98,0,0,1-.94-.061c-.016.34-.031.619-.031,1.487a8.794,8.794,0,0,0,.2,2.387,1.82,1.82,0,0,0,1.049.465l-.062.372c-.5-.063-.783-.078-1.033-.093-.266-.016-.5-.016-.94-.016a14.954,14.954,0,0,0-1.926.109ZM80.679,22.4c-.814,0-.814.2-.861,1.193-.063,1.472-.063,1.659-.047,3.006a2.663,2.663,0,0,0,.72.063c.752,0,2.365,0,2.365-1.984A2.154,2.154,0,0,0,80.679,22.4" fill="#fff"/>
      <path id="Path_3938" data-name="Path 3938" d="M95.648,23.2a4.543,4.543,0,0,0-2.318-.4,5.067,5.067,0,0,0-.985.046c-.064,1.349-.126,3.984-.126,6.649,0,1.643.141,1.674.845,1.814.564.077.627.077.767.109l-.047.387c-.125,0-.47-.031-.8-.046-.329-.032-.641-.047-.736-.047a14.835,14.835,0,0,0-3.272.248l-.141-.4A5.086,5.086,0,0,0,90.371,31a25.7,25.7,0,0,0,.2-3.921,31.519,31.519,0,0,0-.157-4.231c-.438-.03-.642-.046-1.456-.046-1.988,0-2.113.279-2.364.915l-.391-.094a17,17,0,0,0,.626-1.781H87.1a1.488,1.488,0,0,0,.626.185c.627.077,2.959.077,3.774.077,1.143,0,3.429-.015,4.4-.061a.593.593,0,0,0,.359-.093l.235.139a6.5,6.5,0,0,0-.439,1.628l-.468.077Z" fill="#fff"/>
      <path id="Path_3939" data-name="Path 3939" d="M103.743,27.185c0,.589,0,3.409.062,3.719.079.326.956.513,1.3.559l-.031.356c-.25-.031-.594-.061-.94-.077-.343-.031-.719-.047-1.048-.047-.172,0-.673.031-1.159.063-.469.03-.955.061-1.111.061l.015-.356c.972-.078,1.128-.3,1.221-.6a29.875,29.875,0,0,0,.094-3.007c0-.185,0-.263-.015-.542a41.408,41.408,0,0,0-2.521-3.58c-.594-.728-1.064-1.3-2.051-1.3l-.063-.371c.158,0,.595.014,1.05.014.453.016.908.031,1.064.031l2.146-.031-.064.419c-.141,0-.829,0-.829.279a24.766,24.766,0,0,0,2.661,3.766c1.973-3.053,2.067-3.208,2.067-3.549,0-.465-.532-.465-.97-.48l.047-.449c.141,0,.422.014.752.03.312.015.672.031.939.031.25,0,1.331-.031,1.566-.031l-.017.5c-1.08.016-1.643.419-3.523,3.549Z" fill="#fff"/>
      <path id="Path_3940" data-name="Path 3940" d="M118.306,26.441c.578.031,1.064.062,1.518.062,1.943,0,1.943-.186,1.973-.992l.438-.016c.016.3.031.666.031,1.163,0,.573-.031,1.132-.046,1.534l-.423-.015c-.03-.868-.03-.946-.94-1.07a15.078,15.078,0,0,0-2.52-.092l-.031,2.092v.712c0,1.1,0,1.4,1.612,1.535v.387c-.72-.03-1.441-.03-2.191-.03-.564,0-1.489,0-2.146.03V31.37c.376-.078.784-.187.908-.575a22.352,22.352,0,0,0,.219-3.9,21.922,21.922,0,0,0-.235-4.077c-.172-.356-.688-.4-1.048-.418v-.372c.3-.016,1.189.015,2.081.046.908.016,1.818.031,2.147.031a22.987,22.987,0,0,0,3.4-.109,12.9,12.9,0,0,0-.125,2.016l-.407.015c-.063-.512-.094-.837-.3-.976a5.743,5.743,0,0,0-2.583-.434,11.743,11.743,0,0,0-1.253.062c-.047.418-.047,1.193-.047,1.658Z" fill="#fff"/>
      <path id="Path_3941" data-name="Path 3941" d="M125.743,29.587a5.343,5.343,0,0,0-.377,1.132c0,.573.753.666,1.191.727V31.8c-.11,0-.58-.016-1.034-.031s-.876-.031-.907-.031c-.189,0-.846,0-1.1.016v-.311a1.246,1.246,0,0,0,.94-.6c.547-.867,3.257-7.454,3.459-7.981.159-.388.253-.667.346-.946h.407c.094.31.187.651.376,1.163.328.914,1.892,4.913,2.207,5.734.908,2.5,1.174,2.542,1.8,2.634v.311c-.172-.016-.359-.031-.58-.046s-.47-.016-.8-.016c-.971,0-1.707.077-2.192.108v-.357c.407-.061.782-.216.782-.572,0-.217-.767-2.248-.846-2.465a8.353,8.353,0,0,0-1.126-.047,14.462,14.462,0,0,0-2.082.109Zm.751-1.86a11.363,11.363,0,0,0,1.691.14A6.948,6.948,0,0,0,129.2,27.8a34.519,34.519,0,0,0-1.38-3.362Z" fill="#fff"/>
      <path id="Path_3942" data-name="Path 3942" d="M142.5,31.431a13.275,13.275,0,0,1-3.069.435,5.023,5.023,0,0,1-5.324-5.007c0-3.363,2.742-4.975,5.654-4.975a5.1,5.1,0,0,1,1.925.341,2.632,2.632,0,0,0,.642.171,1.028,1.028,0,0,0,.423-.124l.2.062c-.064.294-.393,1.766-.455,2.107l-.249-.061c-.08-.652-.1-.853-.315-1.07a3.656,3.656,0,0,0-2.505-.884c-3.476,0-3.476,3.55-3.476,4.356,0,4.246,3.1,4.555,3.71,4.555a2.969,2.969,0,0,0,2.976-2.045l.361.047a2.861,2.861,0,0,1-.126.728c-.031.109-.188.635-.2.728Z" fill="#fff"/>
      <path id="Path_3943" data-name="Path 3943" d="M146.037,24.194c-.032-1.643-.236-1.658-1.113-1.736V22.1H149.1l.094.356a2.349,2.349,0,0,0-.251.031c-1.267.2-1.346.233-1.346,4.138,0,2.7.2,3.425.829,3.922a3.275,3.275,0,0,0,2.02.62c.267,0,2.224-.016,2.787-1.458a15.613,15.613,0,0,0,.439-4.572c0-2.526-.3-2.541-1.331-2.6l-.063-.434.846-.032c.234,0,.517.032.828.032h1.535v.434c-.342.015-.8.031-.923.325a14.866,14.866,0,0,0-.11,2.278,17.591,17.591,0,0,1-.658,5.114c-.656,1.4-2.708,1.613-3.9,1.613-1.457,0-3.9-.341-3.9-3.054,0-.4.079-2.4.079-2.851Z" fill="#fff"/>
      <path id="Path_3944" data-name="Path 3944" d="M165.4,29.711a8.9,8.9,0,0,1-.611,2.169,8.653,8.653,0,0,0-1.049-.138c-.438-.031-1.066-.047-2.129-.047h-4.352l-.033-.387a1.389,1.389,0,0,0,.877-.373c.267-.325.267-.48.283-4.261,0-2.867,0-3.131-.047-3.519-.079-.65-.533-.7-.987-.728v-.372c.6.015.782.031,1.911.031,1.189,0,1.485-.016,2.082-.046v.4c-.5.063-.94.14-1.1.419A21.568,21.568,0,0,0,160,26.782l-.015,2.387a4.113,4.113,0,0,0,.156,1.673c.127.234.5.234,1.222.234,3.038,0,3.414-.683,3.663-1.411Z" fill="#fff"/>
      <path id="Path_3945" data-name="Path 3945" d="M174.987,23.2a4.54,4.54,0,0,0-2.318-.4,5.049,5.049,0,0,0-.984.046c-.065,1.349-.127,3.984-.127,6.649,0,1.643.142,1.674.846,1.814.563.077.625.077.766.109l-.047.387c-.124,0-.469-.031-.8-.046-.329-.032-.64-.047-.736-.047a14.839,14.839,0,0,0-3.272.248l-.14-.4A5.116,5.116,0,0,0,169.711,31a25.7,25.7,0,0,0,.2-3.921,31.718,31.718,0,0,0-.156-4.231c-.438-.03-.643-.046-1.456-.046-1.989,0-2.114.279-2.364.915l-.391-.094a17.256,17.256,0,0,0,.626-1.781h.265a1.493,1.493,0,0,0,.627.185c.627.077,2.959.077,3.773.077,1.143,0,3.429-.015,4.4-.061a.59.59,0,0,0,.359-.093l.236.139a6.423,6.423,0,0,0-.438,1.628l-.47.077Z" fill="#fff"/>
      <path id="Path_3946" data-name="Path 3946" d="M183.083,27.185c0,.589,0,3.409.062,3.719.078.326.956.513,1.3.559l-.032.356c-.25-.031-.594-.061-.939-.077-.345-.031-.72-.047-1.049-.047-.172,0-.672.031-1.159.063-.469.03-.954.061-1.112.061l.016-.356c.97-.078,1.128-.3,1.222-.6a29.875,29.875,0,0,0,.094-3.007c0-.185,0-.263-.016-.542a41.65,41.65,0,0,0-2.521-3.58c-.594-.728-1.064-1.3-2.051-1.3l-.063-.371c.157,0,.6.014,1.05.014.453.016.908.031,1.064.031l2.144-.031-.062.419c-.14,0-.83,0-.83.279a24.792,24.792,0,0,0,2.662,3.766c1.973-3.053,2.066-3.208,2.066-3.549,0-.465-.531-.465-.969-.48l.047-.449c.14,0,.423.014.752.03.311.015.672.031.938.031s1.331-.031,1.567-.031l-.018.5c-1.08.016-1.643.419-3.522,3.549Z" fill="#fff"/>
      <path id="Path_3947" data-name="Path 3947" d="M195.809,24.377a3.227,3.227,0,1,1-3.424,3.163,3.272,3.272,0,0,1,3.424-3.163m.161,6.087a1.99,1.99,0,0,0,1.982-2.22c0-1.289-.631-3.48-2.424-3.48a1.96,1.96,0,0,0-1.97,2.24c0,1.636.791,3.46,2.412,3.46" fill="#fff"/>
      <path id="Path_3948" data-name="Path 3948" d="M202.135,27.272c.37.019.68.04.971.04,1.243,0,1.243-.12,1.261-.635l.281-.01c.009.188.02.426.02.744,0,.367-.02.723-.03.981l-.271-.01c-.018-.555-.018-.6-.6-.684a9.7,9.7,0,0,0-1.613-.059l-.019,1.338v.456c0,.7,0,.892,1.031.982v.247c-.459-.02-.921-.02-1.4-.02-.361,0-.953,0-1.372.02v-.238c.241-.049.5-.119.581-.367a14.312,14.312,0,0,0,.14-2.5,14.047,14.047,0,0,0-.15-2.607c-.11-.228-.442-.258-.671-.268v-.238c.19-.009.76.01,1.332.03s1.161.02,1.371.02a14.958,14.958,0,0,0,2.173-.069,8.358,8.358,0,0,0-.081,1.288l-.259.01c-.04-.327-.061-.535-.191-.624a3.673,3.673,0,0,0-1.652-.278,7.518,7.518,0,0,0-.8.04c-.031.267-.031.763-.031,1.06Z" fill="#fff"/>
      <path id="Path_3949" data-name="Path 3949" d="M212.414,25.248c.031-.4.031-.883.031-1.1,0-1.271-.47-1.581-1.769-1.736l.016-.418c.109,0,.532.031.813.047a22.789,22.789,0,0,0,2.286.061c1.174,2.449,1.457,3.023,2.615,5.115.172.279,1.081,1.937,1.1,1.953.377-.713.377-.729.956-1.845l.815-1.549,1.863-3.674h2.677v.419c-1.159.171-1.395.264-1.395,1.891,0,.511.064,5.316.283,6.215.125.511.328.619,1.237.666v.4h-1.926a22.011,22.011,0,0,0-2.348.063l-.047-.4c1.113-.294,1.44-.4,1.44-2.108,0-1.519-.093-3.642-.2-5.145h-.031c-1.989,3.719-2.725,5.316-3.71,7.563h-.33a24.149,24.149,0,0,0-2.286-4.835c-.407-.776-1.049-1.969-1.236-2.34h-.032c-.015.511-.031.588-.078,1.193-.127,1.565-.235,2.883-.235,4.261,0,1.008.062,1.24,1.425,1.458l-.032.341c-.392-.016-.753-.016-1.064-.016s-.6-.015-.846-.015c-.376,0-.7,0-1,.015l-.829.047.032-.372c1.486-.2,1.519-.9,1.628-2.775Z" fill="#fff"/>
      <path id="Path_3950" data-name="Path 3950" d="M232.863,28.409h-.36c-.188-1.333-.188-1.4-2.661-1.4a5.7,5.7,0,0,0-1.207.093c0,.217-.046,2-.046,2.046A9.094,9.094,0,0,0,228.776,31a11.8,11.8,0,0,0,2.162.219c2.348,0,2.77-1.195,2.974-1.753h.345a6.4,6.4,0,0,1-.675,2.372c-1.033-.062-1.7-.093-2.284-.124-.58-.016-1.081-.016-1.817-.016-1.44,0-2.113.031-3.648.14l.047-.4c.564-.108.877-.186.97-.7a42.5,42.5,0,0,0,.188-4.572c0-.387-.109-2.293-.109-2.727-.062-.852-.2-.93-.784-1.07a.814.814,0,0,1-.172-.046v-.263h4.95c1.1,0,1.642,0,2.659-.078.048,1.07-.187,2.062-.391,2.062-.078,0-.219-.032-.328-.047a2.564,2.564,0,0,0,.094-.6c0-.589-.658-.853-2.207-.853a14.572,14.572,0,0,0-1.974.171,17.933,17.933,0,0,0-.157,2.4c0,.341,0,.619.016,1.348.361.016.877.046,1.426.046a8.559,8.559,0,0,0,2.034-.17c.267-.108.408-.868.408-.883h.36Z" fill="#fff"/>
      <path id="Path_3951" data-name="Path 3951" d="M237.546,27.851c0-.573-.032-2.99-.1-3.767-.092-1.254-.11-1.441-1.017-1.5v-.42l2.364-.046c.61-.016,1.863-.156,2.427-.156,3.319,0,5.7,2.015,5.7,4.836,0,2.17-1.5,4.975-5.872,4.975-.39,0-2.065-.078-2.41-.078-.282,0-1.551.016-1.817.016h-.469v-.387c1.017-.046,1.191-.108,1.191-2.448Zm3.365-5.378a3.759,3.759,0,0,0-1.643.357,35.244,35.244,0,0,0-.125,3.672c0,.682.015,3.069.046,4.325a6.574,6.574,0,0,0,2.051.418c2.082,0,3.742-1.751,3.742-4.4a4.042,4.042,0,0,0-4.071-4.37" fill="#fff"/>
      <path id="Path_3952" data-name="Path 3952" d="M249.007,31.354c.532-.062,1.236-.124,1.457-.5a16.376,16.376,0,0,0,.295-3.937,22.347,22.347,0,0,0-.234-4.076c-.077-.154-.2-.418-1.393-.418l.016-.418c.2,0,.814.015,1.377.031.58.03,1.112.046,1.19.046.391,0,1.77-.046,2.178-.062V22.5c-.769,0-1.019.046-1.191.232-.375.419-.375,3.084-.375,3.874,0,.714,0,3.642.093,4.092.11.465.2.558,1.379.651l-.033.388-2.489-.031a22.517,22.517,0,0,0-2.27.031Z" fill="#fff"/>
      <path id="Path_3953" data-name="Path 3953" d="M264.477,31.431a13.281,13.281,0,0,1-3.069.435,5.023,5.023,0,0,1-5.324-5.007c0-3.363,2.74-4.975,5.654-4.975a5.1,5.1,0,0,1,1.924.341,2.645,2.645,0,0,0,.642.171,1.037,1.037,0,0,0,.424-.124l.2.062c-.064.294-.394,1.766-.455,2.107l-.25-.061c-.08-.652-.1-.853-.314-1.07a3.656,3.656,0,0,0-2.505-.884c-3.476,0-3.476,3.55-3.476,4.356,0,4.246,3.1,4.555,3.71,4.555a2.969,2.969,0,0,0,2.975-2.045l.361.047a2.8,2.8,0,0,1-.125.728c-.032.109-.189.635-.2.728Z" fill="#fff"/>
      <path id="Path_3954" data-name="Path 3954" d="M267.044,31.354c.531-.062,1.236-.124,1.456-.5a16.322,16.322,0,0,0,.3-3.937,22.349,22.349,0,0,0-.234-4.076c-.077-.154-.2-.418-1.393-.418l.015-.418c.2,0,.815.015,1.378.031.579.03,1.112.046,1.19.046.391,0,1.77-.046,2.177-.062V22.5c-.768,0-1.018.046-1.192.232-.374.419-.374,3.084-.374,3.874,0,.714,0,3.642.093,4.092.111.465.2.558,1.38.651l-.033.388-2.489-.031a22.509,22.509,0,0,0-2.27.031Z" fill="#fff"/>
      <path id="Path_3955" data-name="Path 3955" d="M283.313,29.06c0-.481.046-2.666.046-3.1,0-3.3-.126-3.456-1.6-3.6l.143-.34a2.4,2.4,0,0,1,.391-.032c.126,0,.468.016.829.047a8.254,8.254,0,0,0,.862.062c.078,0,1.08-.016,1.284-.016v.388a.839.839,0,0,0-.845.341,16.95,16.95,0,0,0-.329,4.014c-.017.527-.047,2.837-.047,3.3,0,.171.03.806.047,1.24l.03.589h-.47a10.461,10.461,0,0,0-2.19-2.573l-4.808-4.571a7.328,7.328,0,0,0-.642-.59c-.014.31-.047,1.023-.047,1.333l-.061,3.58c-.017,1.442-.017,2,1.721,2.263a.938.938,0,0,1,0,.419c-.2-.016-.391-.047-.625-.078-.22-.016-.486-.031-.862-.031-.344,0-1.862.093-2.176.109a1.83,1.83,0,0,1,0-.419c.986-.016,1.08-.558,1.111-1.875l.079-4.541c.03-1.286.014-2.341-1.315-2.542a2.237,2.237,0,0,1,0-.465c.078,0,.406.031.734.047s.674.031.8.031h.736a43.854,43.854,0,0,0,3.663,3.657c.721.713,1.442,1.411,2.193,2.092Z" fill="#fff"/>
    </g>
  </g>
  <g id="Group_3882" data-name="Group 3882">
    <g id="Group_3881" data-name="Group 3881" clip-path="url(#clip-path-2)">
      <path id="Path_3956" data-name="Path 3956" d="M294.132,28.409h-.359c-.188-1.333-.188-1.4-2.662-1.4a5.681,5.681,0,0,0-1.2.093c0,.217-.047,2-.047,2.046A9.168,9.168,0,0,0,290.046,31a11.8,11.8,0,0,0,2.16.219c2.349,0,2.773-1.195,2.975-1.753h.346a6.4,6.4,0,0,1-.674,2.372c-1.033-.062-1.707-.093-2.286-.124-.579-.016-1.08-.016-1.816-.016-1.439,0-2.115.031-3.648.14l.047-.4c.563-.108.876-.186.969-.7a42.213,42.213,0,0,0,.19-4.572c0-.387-.111-2.293-.111-2.727-.062-.852-.2-.93-.782-1.07a.767.767,0,0,1-.171-.046v-.263h4.945c1.1,0,1.646,0,2.663-.078.047,1.07-.188,2.062-.391,2.062-.078,0-.219-.032-.33-.047a2.564,2.564,0,0,0,.094-.6c0-.589-.657-.853-2.207-.853a14.544,14.544,0,0,0-1.973.171,18.1,18.1,0,0,0-.156,2.4c0,.341,0,.619.016,1.348.361.016.877.046,1.424.046a8.568,8.568,0,0,0,2.036-.17c.265-.108.407-.868.407-.883h.359Z" fill="#fff"/>
      <path id="Path_3957" data-name="Path 3957" d="M4.193,7.994a.614.614,0,0,0-.432.472.751.751,0,0,0-.493.115.768.768,0,0,0-.323.52c0,.013-.015.153-.015.154a.825.825,0,0,0,.516.754l-.018.093a.664.664,0,0,0,.237.5.869.869,0,0,0,.311.174c-.022.085-.055.218-.055.218l.047.26a.834.834,0,0,0,.8.575.688.688,0,0,0,.2.325.763.763,0,0,0,.77.154.879.879,0,0,0-.065.285.843.843,0,0,0,.156.483c.306.446.836.23,1.17.072a.661.661,0,0,0,.672.227,1.059,1.059,0,0,0,.793-.649l.335-.054.056-.036a1.475,1.475,0,0,0,.474-.7,3.14,3.14,0,0,1,.63.785,8.3,8.3,0,0,0,.562.958l.342.566a1.649,1.649,0,0,1-.776,1.225l-.214.108a11.083,11.083,0,0,0-1.5.852H8.369a1.252,1.252,0,0,0-.56.116,1.642,1.642,0,0,0-.582-.131,1.232,1.232,0,0,0-1.18.644,1.262,1.262,0,0,0,1.192,1.876,1.249,1.249,0,0,0,.526-.13,1.39,1.39,0,0,0,.519.116,1.444,1.444,0,0,0,.557-.122,1.216,1.216,0,0,0,.5.136,1.141,1.141,0,0,0,.49-.126,1.225,1.225,0,0,0,1.021,0,1.21,1.21,0,0,0,.48.124,1.149,1.149,0,0,0,.491-.126,1.241,1.241,0,0,0,.478.112,1.265,1.265,0,0,0,.537-.108,1.207,1.207,0,0,0,.477.122,1.145,1.145,0,0,0,.491-.126,1.223,1.223,0,0,0,1.018,0,1.212,1.212,0,0,0,.478.123,1.149,1.149,0,0,0,.491-.126,1.246,1.246,0,0,0,.479.112,1.218,1.218,0,0,0,.562-.122,1.616,1.616,0,0,0,.59.136,1.246,1.246,0,0,0,1.2-.668,1.315,1.315,0,0,0-.072-1.3,1.338,1.338,0,0,0-1.136-.551,1.248,1.248,0,0,0-.519.126l-.183-.054c-.217-.319-.549-.476-1.3-.791l-.113-.048a1.808,1.808,0,0,1-1.094-.875l-.022-.04a3.2,3.2,0,0,1-.163-1.1,2.559,2.559,0,0,1,.331-1.355,2.073,2.073,0,0,1,.57-.573,1.325,1.325,0,0,0,.231.5l.016.017.044.035.338.174-.039-.085c.148.347.354.708.765.763a.726.726,0,0,0,.406-.079.816.816,0,0,0,.578.231.7.7,0,0,0,.467-.191.776.776,0,0,0,.844-.31l.132-.384v-.023a.6.6,0,0,0-.122-.36l.052-.014a.639.639,0,0,0,.246-.248.675.675,0,0,0,.615-.412c.005-.014.021-.074.032-.114l.031-.028a.812.812,0,0,0,.629.016.669.669,0,0,0,.334-.387.791.791,0,0,0,.878-.71l.011-.137c0-.241-.114-.638-.737-.84a.8.8,0,0,0-.218-.461.806.806,0,0,0-.937-.148.619.619,0,0,0,.2-.229c.35.074.939.161,1.2-.35l.064-.252a2.193,2.193,0,0,0-.053-.242.921.921,0,0,0,.407-.733l-.09-.4a.724.724,0,0,0-.833-.453A.549.549,0,0,0,20.3,5.62c-.008-.007-.023-.018-.036-.027l.066-.249-.066-.329a.76.76,0,0,0-.428-.45.957.957,0,0,0-.549-.015.966.966,0,0,0,.318-.48c0-.015.013-.128.013-.128v0a.745.745,0,0,0-.174-.483.9.9,0,0,0-.976-.273.7.7,0,0,0-.391-.237.94.94,0,0,0-.826.285l-.174-.113h-.042l-.1.013a.816.816,0,0,0-.241-.539.913.913,0,0,0-.68-.3.849.849,0,0,0-.269.055.806.806,0,0,0,.167-.43l-.074-.3a.839.839,0,0,0-.386-.393V1.212a.8.8,0,0,0-.6-.857.9.9,0,0,0-.9.336.751.751,0,0,0-.2-.061A.85.85,0,0,0,13.24.346c-.549-.072-.766.426-.871.732a.649.649,0,0,0-.378.089l-.171.174-.088-.046C11.647.752,11.367.571,11.2.518a.755.755,0,0,0-.415-.011C10.34.038,9.95.05,9.7.166a.715.715,0,0,0-.417.68s.049.245.076.378a.633.633,0,0,0-.191.184.922.922,0,0,0-.784.134.8.8,0,0,0-.347.676,1.294,1.294,0,0,0,.14.55.7.7,0,0,0-.243.426c0,.008-.006.1-.006.1s.025.1.05.2a.9.9,0,0,0-.558.283.741.741,0,0,0-.188.4.713.713,0,0,0-.66-.553.572.572,0,0,0-.422.192A.694.694,0,0,0,5.462,3.7a.814.814,0,0,0-.5.814c0,.012.018.155.03.25a.687.687,0,0,0-.279.31.153.153,0,0,0-.011.016c-.005.011-.012.015-.016.025L4.7,5.111a1.262,1.262,0,0,0-.053.222V5.34a.739.739,0,0,0,.146.417H4.782a.686.686,0,0,0-.388.419.762.762,0,0,0-.64.446c-.011.028-.1.393-.1.393l-.009.034.087.354a1,1,0,0,0,.433.407c-.005.012.037.034.048.093a.1.1,0,0,1-.021.09m.337-.308L4.4,7.627A.816.816,0,0,1,4,7.3L3.938,7.05c.013-.057.085-.366.085-.366l-.014.061a.493.493,0,0,1,.486-.308l.118,0,.025-.115a.4.4,0,0,1,.243-.3l.458-.078-.2-.2a.549.549,0,0,1-.214-.39L4.961,5.2a.482.482,0,0,1,.251-.234L5.3,4.915,5.248,4.5a.533.533,0,0,1,.324-.535.43.43,0,0,1,.494.124l.116.109.095-.128A.333.333,0,0,1,6.565,3.9c.144,0,.348.061.456.527l.04.112a.683.683,0,0,1,.209-.053.6.6,0,0,1,.2.112l.078-.1-.048-.219L7.49,4.273a.464.464,0,0,1,.137-.3.611.611,0,0,1,.515-.217l.2.012-.088-.209L8.21,3.3l.006-.092a.458.458,0,0,1,.211-.3l.094-.071-.052-.106a1.161,1.161,0,0,1-.149-.516.515.515,0,0,1,.226-.444.648.648,0,0,1,.632-.08l.126.05.055-.124a.384.384,0,0,1,.21-.2l.108-.044-.029-.133-.082-.4A.434.434,0,0,1,9.818.423c.259-.12.528-.013.819.325L10.7.824,10.8.788a.465.465,0,0,1,.319,0c.191.06.316.277.352.612l.009.081.1.042.087.039.136.127.064.021.11-.138.159-.16a.412.412,0,0,1,.307-.044l.123.022.037-.119c.134-.416.289-.686.6-.645a.578.578,0,0,1,.375.217l.04.045.06,0a.472.472,0,0,1,.235.072l.107.068.08-.1a.652.652,0,0,1,.684-.305.513.513,0,0,1,.388.571l-.014.189.1.037a.576.576,0,0,1,.322.288l.057.235a.819.819,0,0,1-.27.43l-.052.052.021.084L15.4,2.9l.188-.15a.7.7,0,0,1,.432-.182.651.651,0,0,1,.473.218.54.54,0,0,1,.171.394l-.048.213.219.027.142-.028c-.014-.013.2.127.2.127l.09.059.081-.072c.194-.17.422-.347.66-.289a.456.456,0,0,1,.292.194l.059.082.1-.028a.65.65,0,0,1,.766.167.45.45,0,0,1,.111.29l-.011.115a.8.8,0,0,1-.293.366l-.067.055.091.437.151-.051a.765.765,0,0,1,.526-.021.475.475,0,0,1,.262.269l.055.276a1.446,1.446,0,0,0-.072.217l-.028.1.077.081.088.058a.948.948,0,0,1,.039.2l.022.154.152-.035c.342-.081.529-.008.647.249l.076.342a.666.666,0,0,1-.36.53l-.088.056.038.127.056.2s-.048.185-.048.185c-.159.3-.583.24-.968.154l-.129-.028-.052.145a.4.4,0,0,1-.28.261l-.128.048.053.151.036.109a.779.779,0,0,0-.015.08l-.045.292.256-.149c.4-.233.672-.246.87-.039a.5.5,0,0,1,.159.358v.11l.1.034c.4.1.613.31.613.592l-.009.126a.539.539,0,0,1-.213.361.621.621,0,0,1-.451.081l-.125-.015-.03.122a.41.41,0,0,1-.23.311.633.633,0,0,1-.5-.043l-.081-.033-.085.079-.12.106-.023.052-.034.132a.41.41,0,0,1-.429.23l-.1,0-.035.092a.348.348,0,0,1-.141.171c-.017,0-.169.042-.169.042l-.08.022-.05.194.049.08a.408.408,0,0,1,.143.284c-.018.051-.1.3-.1.3-.063.086-.214.236-.6.148l-.077-.018-.056.057a.462.462,0,0,1-.339.154.611.611,0,0,1-.438-.2l-.081-.074-.092.061a.453.453,0,0,1-.322.067c-.27-.036-.42-.306-.541-.593l-.021-.047-.072-.008-.338-.175a1.584,1.584,0,0,1-.2-.56l-.042-.187-.166.094a2.382,2.382,0,0,0-.816.774,2.839,2.839,0,0,0-.377,1.51,3.253,3.253,0,0,0,.2,1.236l.022.039a2.089,2.089,0,0,0,1.231,1l.113.047c.768.322,1.041.448,1.21.727l.028.047.36.108.051-.028a.977.977,0,0,1,.465-.112,1.06,1.06,0,0,1,.91.439,1.044,1.044,0,0,1,.044,1,.975.975,0,0,1-.941.51,1.417,1.417,0,0,1-.537-.132l-.063-.028-.062.032a.972.972,0,0,1-.492.114,1.064,1.064,0,0,1-.41-.1L15.8,18.51l-.061.033a.87.87,0,0,1-.436.111,1.088,1.088,0,0,1-.418-.119l-.061-.029-.061.03a1.016,1.016,0,0,1-.477.1,1.069,1.069,0,0,1-.41-.1l-.063-.026-.06.033a.877.877,0,0,1-.437.111,1.062,1.062,0,0,1-.417-.119l-.061-.028-.06.03a.993.993,0,0,1-.885,0l-.063-.027-.061.034a.87.87,0,0,1-.436.111,1.072,1.072,0,0,1-.42-.121L10.85,18.5l-.061.03a1.009,1.009,0,0,1-.479.1,1.059,1.059,0,0,1-.409-.1l-.064-.026-.06.033a.87.87,0,0,1-.436.111,1.047,1.047,0,0,1-.421-.126L8.859,18.5l-.061.029a1.154,1.154,0,0,1-.514.111,1.191,1.191,0,0,1-.451-.108l-.062-.026-.059.032a.966.966,0,0,1-.473.116A.979.979,0,0,1,6.3,17.193a.96.96,0,0,1,.928-.491,1.43,1.43,0,0,1,.529.128l.062.027.06-.031a.985.985,0,0,1,.485-.11l.106.008.042-.034a11.116,11.116,0,0,1,1.5-.855l.215-.108a1.942,1.942,0,0,0,.94-1.477l.009-.052-.4-.664a9,9,0,0,1-.539-.912,3.21,3.21,0,0,0-.86-1.029l-.155-.112-.063.181a1.366,1.366,0,0,1-.439.736l-.23.039c-.029-.031-.135-.149-.135-.149l-.084.213a.834.834,0,0,1-.643.6.39.39,0,0,1-.46-.184L7.1,12.8l-.132.063c-.371.178-.718.317-.895.059a.567.567,0,0,1-.107-.323.784.784,0,0,1,.259-.532l-.185-.213c-.367.265-.652.3-.871.1a.463.463,0,0,1-.149-.274l-.024-.113H4.877a.576.576,0,0,1-.636-.375S4.218,11.048,4.21,11c.01-.037.034-.14.045-.187l.284-.217-.34-.055a.565.565,0,0,1-.344-.152.388.388,0,0,1-.143-.291l.052-.23L3.657,9.8c-.3-.117-.443-.293-.443-.538l.012-.14a.49.49,0,0,1,.2-.309.567.567,0,0,1,.406-.062l.152.021.009-.154a.369.369,0,0,1,.3-.374l.263-.026.079-.016-.089-.083a1.191,1.191,0,0,1-.092-.25.963.963,0,0,1,.077-.187" fill="#fff"/>
    </g>
  </g>
  <g id="Group_3884" data-name="Group 3884">
    <g id="Group_3883" data-name="Group 3883" clip-path="url(#clip-path)">
      <path id="Path_3958" data-name="Path 3958" d="M10.735,18.024a.748.748,0,0,0,.6.31.467.467,0,0,0,.361-.113.142.142,0,0,1,.193-.021.694.694,0,0,0,.414.12.826.826,0,0,0,.281-.044,1.034,1.034,0,0,1-.09-.1l-.58-.847a.743.743,0,0,0-.6-.308.465.465,0,0,0-.361.112.143.143,0,0,1-.193.022.7.7,0,0,0-.416-.12.817.817,0,0,0-.279.043,1.078,1.078,0,0,1,.085.093Z" fill="#fff"/>
      <path id="Path_3959" data-name="Path 3959" d="M6.587,18.024a.76.76,0,0,1-.005-.683.655.655,0,0,1,.641-.319.976.976,0,0,1,.714.309l.58.846c.026.037.07.055.1.088a.947.947,0,0,1-.335.054.832.832,0,0,1-.458-.123.143.143,0,0,0-.186.021.539.539,0,0,1-.4.116.728.728,0,0,1-.652-.309" fill="#fff"/>
      <path id="Path_3960" data-name="Path 3960" d="M9.8,5.449a4.006,4.006,0,0,1,.456-.3,3.47,3.47,0,0,1,.631-.271.759.759,0,0,0-.7-.479l-.152-.039c-.021,0-.024-.019-.04-.033-.046-.039-.153-.132-.208-.109a.5.5,0,0,0,.009.2l.01.157-.043.1a.717.717,0,0,0,.035.774" fill="#fff"/>
      <path id="Path_3961" data-name="Path 3961" d="M12.784,4.315l0,0a.151.151,0,0,1-.026-.024Z" fill="#fff"/>
      <path id="Path_3962" data-name="Path 3962" d="M7.048,7.174,7,7.294,6.77,7.4a.135.135,0,0,1-.112.026h0c-.127.03-.223.075-.251.189-.036.152.078.239.219.329,0,0,.143.153.144.162.006.025.012.06.017.1a.877.877,0,0,1,.533.051.356.356,0,0,1,.12-.056.785.785,0,0,1,.579.181c.05-.1.133-.252.3-.214a.712.712,0,0,1,.478.429.378.378,0,0,1,.137-.138c0-.017-.005-.035-.005-.053a.374.374,0,0,1,.057-.221l.1-.092-.005-.006a1.237,1.237,0,0,1-.212-.264,1.454,1.454,0,0,1-1.027.067.53.53,0,0,1-.325-.43,1.047,1.047,0,0,1-.386-.423c-.034.014-.052.05-.077.141" fill="#fff"/>
      <path id="Path_3963" data-name="Path 3963" d="M6.347,8.7c-.092,0-.172,0-.218.077s-.019.138.02.217c0,.007.021.043.023.051l.043.148.118.318a1.083,1.083,0,0,0,.417.381l.506-.845a.549.549,0,0,1-.174-.375.518.518,0,0,1,.049-.2.619.619,0,0,0-.591.154l-.09.06Z" fill="#fff"/>
      <path id="Path_3964" data-name="Path 3964" d="M14.791,7.631l.023-.021A1.357,1.357,0,0,1,15.44,7.2a1.1,1.1,0,0,1-.155-.519A1.13,1.13,0,0,1,14.8,7.1a.232.232,0,0,1,.1.138.363.363,0,0,1,.01.087.507.507,0,0,1-.094.281c-.007.01-.019.019-.026.029" fill="#fff"/>
      <path id="Path_3965" data-name="Path 3965" d="M16.978,8.288c0-.006-.008-.016-.018-.044l.017.045Z" fill="#fff"/>
      <path id="Path_3966" data-name="Path 3966" d="M15.844,8.151c.032.079-.413.278-.745.388a3.355,3.355,0,0,0-.453.194l-.008.008a1.311,1.311,0,0,0-.33.343,2.115,2.115,0,0,0,.738.181l.016-.07a.26.26,0,0,1,.13-.22l.246.018a.8.8,0,0,0,.651-.007l-.039-.054-.082-.2c-.017-.041-.042-.043-.02-.08s.034-.016.078-.019l.253-.018a1.313,1.313,0,0,0,.283.02.121.121,0,0,1,.068-.01.152.152,0,0,0,.127-.1l-.023-.111-.047-.176c0-.116.1-.167.2-.218.2-.1.288-.17.213-.355-.032-.076-.292-.022-.4,0l-.277.005-.113-.148a.137.137,0,0,0-.094-.1c-.051-.02-.2.079-.262.12-.11.074-.2.131-.294.09l-.13-.131-.036-.042c-.039-.019-.154.025-.487.342l-.25.18a.188.188,0,0,1-.169-.116c-.144.024-.324.405-.424.723.181-.073.584-.228.853-.316.338-.112.8-.207.83-.128" fill="#fff"/>
      <path id="Path_3967" data-name="Path 3967" d="M7.507,6.182,7.395,6.2l-.125.007s-.057.008-.063-.01l.014.044.036.172v.014a.911.911,0,0,0,.426.81l.01.006c.009,0,.057-.008.157-.108a2.32,2.32,0,0,0,.508-.925,1.522,1.522,0,0,0-.851-.032" fill="#fff"/>
      <path id="Path_3968" data-name="Path 3968" d="M19.489,6.009l-.1.07a.436.436,0,0,1,.243.41c0,.015,0,.032,0,.05-.029.385-.617.4-.993.4a.514.514,0,0,1,.083.255.316.316,0,0,1-.026.126c-.185.44-.937.416-1.3.4a.442.442,0,0,1,.008.07.388.388,0,0,1-.027.14.465.465,0,0,1,.224.091.206.206,0,0,1,.034.051,1.864,1.864,0,0,1,.885.085c.055-.078.154-.071.262-.058.231.026.381.021.413-.085V7.941a.282.282,0,0,1,.1-.27c.093-.074.233-.044.445,0s.564.123.634-.014c.013-.026-.038-.105-.069-.151a.328.328,0,0,1-.076-.306l.157-.129c.286-.146.418-.276.3-.546-.058-.127-.168-.119-.41-.048-.141.04-.334.1-.4-.076l-.013-.222c.009-.083.013-.139-.014-.171s-.076-.059-.245-.075c-.037.027-.073.051-.106.073" fill="#fff"/>
      <path id="Path_3969" data-name="Path 3969" d="M15.174,6.3l.123.129a.9.9,0,0,1,.108-.323.8.8,0,0,1,.7-.4,1.187,1.187,0,0,1,.744-.154,1.148,1.148,0,0,1,.385-.456c0-.042-.008-.124-.127-.217s-.288-.03-.491.088a.456.456,0,0,1-.334.1.947.947,0,0,1-.139-.133.958.958,0,0,0-.185-.266c-.06.034-.118.068-.188.1a.386.386,0,0,1,.065.212.4.4,0,0,1-.021.127.757.757,0,0,1-.321.362.663.663,0,0,1,.043.215.856.856,0,0,1-.36.614" fill="#fff"/>
      <path id="Path_3970" data-name="Path 3970" d="M14.1,4.883a1.2,1.2,0,0,0-.119-.729l-.023-.071c-.019-.076-.034-.118-.107-.143s-.149.038-.207.074l-.09.049a1.045,1.045,0,0,0-.612.535,4.256,4.256,0,0,1,1.14.271.079.079,0,0,1,.018.014" fill="#fff"/>
      <path id="Path_3971" data-name="Path 3971" d="M17.329,5.8l-.093.03-.186.036c-.021.005-.021,0-.042-.01a.965.965,0,0,0-.8.1.937.937,0,0,0,.739.953.834.834,0,0,0,.313-.67c0-.052,0-.1-.006-.132l0-.079.034-.122s.028-.106.043-.108" fill="#fff"/>
      <path id="Path_3972" data-name="Path 3972" d="M14.385,9.584c.077-.036.111-.055.119-.141a1.536,1.536,0,0,1-.339-.133,3.626,3.626,0,0,0-.243.518,3.218,3.218,0,0,0-.135.935c0,.042-.006.077-.007.118.1-.127.219-.268.343-.4a.639.639,0,0,1,.016-.715Z" fill="#fff"/>
      <path id="Path_3973" data-name="Path 3973" d="M16.435,9.16c.083-.059.141-.106.146-.162V8.976a.179.179,0,0,0-.011-.066,1.4,1.4,0,0,1-.248-.014c.01.028.039.06.039.086a.235.235,0,0,1-.089.177.943.943,0,0,1-.907.1l-.035-.01a.31.31,0,0,1-.155.257.871.871,0,0,1-.4,0,.405.405,0,0,1-.269.329l-.149.1a.337.337,0,0,0-.027.333,2.4,2.4,0,0,1,.384-.318c.005,0,.222-.138.406-.227.055-.027.422-.172.474-.081s-.308.3-.355.327a.684.684,0,0,0-.29.21c-.08.16-.168.345-.232.493a1.462,1.462,0,0,1,.426-.027l.19-.054a1.436,1.436,0,0,0,.385-.106l.041-.044-.059-.079a.319.319,0,0,1-.094-.188.163.163,0,0,1,.048-.113l.282-.089c.3-.035.465-.084.481-.242V9.7a.18.18,0,0,0-.064-.134.256.256,0,0,1-.084-.172.194.194,0,0,1,.014-.071Z" fill="#fff"/>
      <path id="Path_3974" data-name="Path 3974" d="M18.758,5.127c-.029-.092-.051-.135-.1-.144-.186-.033-.333.124-.491.318-.105.128-.2.238-.326.2l-.176-.1c-.092-.07-.153-.112-.248-.088s-.189.144-.259.254a.309.309,0,0,1,.357.033A.36.36,0,0,1,17.542,6a.26.26,0,0,0-.015.082,1.511,1.511,0,0,1-.005.319c.261-.167.736-.5.807-.466s-.335.5-.743.75c-.088.054-.178.108-.206.13a1.152,1.152,0,0,1-.244.287.517.517,0,0,1-.055.262.375.375,0,0,1,.184.081l.1,0c.237.013.958.051,1.076-.229.024-.058-.069-.189-.109-.245-.05-.071-.093-.131-.061-.212s.115-.094.284-.092c.687.008.8-.091.8-.15.012-.159-.07-.2-.186-.239l-.133-.095c-.049-.036-.026-.053-.005-.111.04-.115.163-.2.305-.291l.11-.076a.134.134,0,0,1,.054-.04c.179-.136.272-.262.2-.449a.15.15,0,0,0-.084-.091c-.145-.057-.42.068-.538.121l-.168.047c-.1-.014-.13-.106-.149-.167" fill="#fff"/>
      <path id="Path_3975" data-name="Path 3975" d="M18.591,8.542c-.134-.178-.481-.244-.981-.192a1.854,1.854,0,0,0-.037.69,1.213,1.213,0,0,0,.217.521c.012.019.024.038.035.057.619-.116.729-.449.781-.615l.048-.112.122-.106.086-.071c-.012-.025-.1-.061-.129-.075a1.521,1.521,0,0,1-.142-.1" fill="#fff"/>
      <path id="Path_3976" data-name="Path 3976" d="M13.592,8.853l.081-.038.169-.081a3.54,3.54,0,0,1,.169-.531,4.171,4.171,0,0,1-.47.2,2.218,2.218,0,0,1,.049.423l0,.025" fill="#fff"/>
      <path id="Path_3977" data-name="Path 3977" d="M14.63,7.277l-.055-.013-.16-.081c-.041-.021-.065,0-.071-.049s.016-.034.051-.064l.2-.17c.12-.065.486-.263.453-.386l-.081-.057-.117-.121c-.024-.092.043-.144.1-.185.208-.161.4-.363.3-.607l-.1-.012-.194-.044c-.088-.053-.1-.154-.106-.282-.006-.08-.018-.248-.066-.273-.007,0-.082-.024-.362.224l-.07.053a.182.182,0,0,1-.181-.022l-.07-.027c-.168,0-.224.4-.242.525l-.057.17c-.061.06-.14.058-.234-.007a.349.349,0,0,1-.05-.032.279.279,0,0,0-.175.147.381.381,0,0,0-.028.154,1.565,1.565,0,0,0,.141.532.482.482,0,0,1,.049.172.125.125,0,0,1-.077.118l-.107.022a.121.121,0,0,0-.106.045.3.3,0,0,0-.062.2,1.646,1.646,0,0,0,.2.654c.024-.076.048-.155.072-.236.08-.269.54-1.086.657-1.04s-.366.878-.438,1.118a3.883,3.883,0,0,0-.1.411c.352-.136,1.157-.55,1.092-.842" fill="#fff"/>
      <path id="Path_3978" data-name="Path 3978" d="M10.2,8.174a.566.566,0,0,1,.2-.385.737.737,0,0,1-.1-.346.476.476,0,0,1,.176-.37c-.094-.088-.192-.062-.314-.009a.2.2,0,0,1-.222,0,.138.138,0,0,1-.041-.06.919.919,0,0,0-.3-.449H9.546c-.228.1-.234.345-.22.589.006.112.011.193-.054.249l-.118.064c-.061.024-.076.034-.082.053-.043.128.067.252.2.377.075.074.14.138.119.231a2.716,2.716,0,0,1-.178.214.323.323,0,0,0,.006.165.123.123,0,0,1,.012.056,1.235,1.235,0,0,1,.305.653c.014-.007.022-.022.037-.027l.2.025a.378.378,0,0,1,.067.054,3.433,3.433,0,0,1-.067-.378c-.071-.6-.031-.8.047-.824s.108.2.209.824a5.22,5.22,0,0,0,.164.7.624.624,0,0,1,.165.109c.115-.077.368-.278.386-.451l0-.093,0-.011a.729.729,0,0,1-.033-.2.442.442,0,0,1,.1-.278c-.226-.041-.608-.12-.608-.483" fill="#fff"/>
      <path id="Path_3979" data-name="Path 3979" d="M11.74,12.671a1.321,1.321,0,0,0,.023-.271,5.881,5.881,0,0,0-.107-.987c-.187-1.067-.754-1.232-1.027-1.31l-.03-.01a2.06,2.06,0,0,1,.112.7c0,.032,0,.124,0,.137a2.465,2.465,0,0,0,1.031,1.737" fill="#fff"/>
      <path id="Path_3980" data-name="Path 3980" d="M8.789,9.737a6,6,0,0,0,.5.347l.035.022s.009,0,.013,0a.9.9,0,0,0,.5.2l.01-.073c-.024-.55-.146-.762-.2-.8a.29.29,0,0,0-.106.116.137.137,0,0,1-.257-.073A1.127,1.127,0,0,0,9.03,8.71a.561.561,0,0,0-.127.241.137.137,0,0,1-.268-.03.508.508,0,0,0-.345-.475l-.045.08c-.033.071-.1.219-.244.162L7.923,8.64c-.08-.056-.292-.206-.427-.177a.149.149,0,0,0-.1.083c-.09.153-.028.246.142.4l.131.2c0,.117-.105.172-.173.208-.044.023-.1.054-.1.078,0,.116.08.165.328.2l.2.078c.1.122-.024.236-.09.3,0,0-.087.095-.089.058a.465.465,0,0,0,.443.263.24.24,0,0,1,.028,0h0c.063,0,.128.007.192.007.123,0,.251,0,.273.131l-.087.225s-.05.085-.07.087c.1.154.454.143.963-.028a1.281,1.281,0,0,0-.308-.408l-.039-.025c-.148-.092-.327-.214-.5-.349,0,0-.413-.358-.352-.453s.5.222.5.222" fill="#fff"/>
      <path id="Path_3981" data-name="Path 3981" d="M11.941,9.657l-.013-.007a1.958,1.958,0,0,0,.28.932l.442.739a5.068,5.068,0,0,0,.181-.816c0-.052.005-.113.005-.18a2.954,2.954,0,0,0-.064-.611l-.066.011a1.124,1.124,0,0,1-.765-.068" fill="#fff"/>
      <path id="Path_3982" data-name="Path 3982" d="M13.183,6.709a1.632,1.632,0,0,1-.146-.589.657.657,0,0,1,.046-.244.389.389,0,0,0-.173-.262c-.023-.01-.043,0-.124.094-.06.07-.141.168-.266.133l-.2-.193c-.177-.237-.368-.465-.593-.412-.176.041-.195.252-.169.579.012.149.021.255-.12.323-.085.03-.173.072-.184.153a.414.414,0,0,0,.2.375A.386.386,0,0,1,11.5,6.7c.26.063.495.4.608.636.125-.083.342-.223.519-.076a1.426,1.426,0,0,1,.313.78h0a.787.787,0,0,1,.184-.014,1.951,1.951,0,0,1-.247-.817.569.569,0,0,1,.129-.386.38.38,0,0,1,.177-.117" fill="#fff"/>
      <path id="Path_3983" data-name="Path 3983" d="M12.935,9.107a5.15,5.15,0,0,0,.172-.805l-.118.011a.292.292,0,0,1-.251-.028.233.233,0,0,1-.062-.139,1.4,1.4,0,0,0-.227-.672c-.037-.012-.163.073-.2.1-.088.06-.159.107-.244.077a.167.167,0,0,1-.1-.1c-.09-.27-.387-.616-.5-.588-.131.03-.135.213-.135.22a.138.138,0,0,1-.243.086c-.032-.038-.151-.151-.349,0s.006.461.015.473a.137.137,0,0,1,.024.1.138.138,0,0,1-.055.089c-.074.053-.183.166-.183.242,0,.123.15.173.409.219.14.025.261.046.282.168a.223.223,0,0,1-.09.2c-.063.061-.128.125-.057.33a.184.184,0,0,0,.1.126c.124.054.347-.042.481-.1l.252-.054c.041-.009.049-.026.081,0s.015.039.015.081a1.424,1.424,0,0,1-.013.194l.108.066a.865.865,0,0,0,.616.052l.035-.006a1.412,1.412,0,0,0-.052-.133l-.021-.045a1.743,1.743,0,0,0-.381-.51c-.265-.234-.639-.487-.6-.562s.46.162.772.395a2,2,0,0,1,.344.329.986.986,0,0,0,.18.184" fill="#fff"/>
      <path id="Path_3984" data-name="Path 3984" d="M12.821,16.884l.049-.03a.564.564,0,0,0-.123-.322.248.248,0,0,0-.189-.073c-.188,0-.314.167-.391.315a1.393,1.393,0,0,1,.165-.01,1.01,1.01,0,0,1,.489.12" fill="#fff"/>
      <path id="Path_3985" data-name="Path 3985" d="M15.909,17.332a.749.749,0,0,0-.6-.31.467.467,0,0,0-.361.113.142.142,0,0,1-.193.021.706.706,0,0,0-.415-.119.813.813,0,0,0-.3.049.926.926,0,0,1,.08.086l.583.852a.751.751,0,0,0,.6.309.47.47,0,0,0,.361-.112.142.142,0,0,1,.193-.022.7.7,0,0,0,.415.12.83.83,0,0,0,.307-.051.864.864,0,0,1-.086-.085l-.583-.851" fill="#fff"/>
      <path id="Path_3986" data-name="Path 3986" d="M10.258,16.769c.029,0,.055-.006.088-.006a1.013,1.013,0,0,1,.489.12.72.72,0,0,1,.236-.1c0-.049-.005-.1,0-.158a1.219,1.219,0,0,0-.81.148" fill="#fff"/>
      <path id="Path_3987" data-name="Path 3987" d="M7.283,11.959c-.015-.073.285-.333.432-.444a2.2,2.2,0,0,1,.764-.423.445.445,0,0,1-.2-.187.2.2,0,0,1-.026-.1.383.383,0,0,1,.074-.2c-.05,0-.108,0-.167-.01a.206.206,0,0,0-.17.047l.072.162c.044.075.078.135.052.209a.156.156,0,0,1-.084.087.186.186,0,0,1-.171-.034c-.12-.066-.437-.241-.657-.125a.162.162,0,0,1-.049.026l.067.074a.288.288,0,0,1,.106.182.143.143,0,0,1-.039.1c-.066.075-.157.06-.245.046a.379.379,0,0,0-.429.128c-.106.146-.064.2,0,.284a.235.235,0,0,1,.058.273l-.119.132c-.232.218-.343.377-.225.551.07.038.377-.11.493-.165l.312-.119c.207-.014.255.169.275.247.028.1.029.111.145.087.285-.058.362-.267.443-.488a.8.8,0,0,1,.22-.375.2.2,0,0,1,.17-.042c.1.024.141.115.175.188l.011.02a2.136,2.136,0,0,0,.352-.78.12.12,0,0,1,.02-.039,3.139,3.139,0,0,0-.452.125,10.842,10.842,0,0,1-1.215.565" fill="#fff"/>
      <path id="Path_3988" data-name="Path 3988" d="M6.916,11.08a.239.239,0,0,1-.039-.111l0-.031a.291.291,0,0,1,.133-.187.705.705,0,0,1-.24-.147.475.475,0,0,1-.153-.472A1.559,1.559,0,0,1,6.3,9.9c-.006,0-.014,0-.02-.006a.43.43,0,0,0-.428,0,.608.608,0,0,0-.011.213c.006.145.013.294-.094.373s-.244,0-.366-.081c-.162-.109-.292-.187-.386-.131l.02.154-.011.3-.231.126c-.087.025-.206.059-.235.116a.173.173,0,0,0,.007.12c.052.147.177.168.421.155l.267.054.079.22a.273.273,0,0,0,.072.2c.159.145.5-.135.625-.24l.187-.092c.043-.021.056.03.1.056l.036.024a.718.718,0,0,1,.067-.122.587.587,0,0,1,.522-.255" fill="#fff"/>
      <path id="Path_3989" data-name="Path 3989" d="M20.25,9.62l-.134-.031c-.091-.046-.111-.132-.06-.257a.193.193,0,0,0-.041-.251c-.131-.136-.486.089-.638.185-.118.074-.178.113-.257.079A.23.23,0,0,1,19,9.169c-.023-.088-.047-.133-.082-.153-.012.01-.04.031-.041.028l-.014.042a1.065,1.065,0,0,1-.3.492c.38.036.94.147.939.245,0,.125-.951-.039-1.2-.023-.054,0-.1.01-.152.015a1.863,1.863,0,0,1-.219.06.451.451,0,0,0,.089.146l.171-.028a.693.693,0,0,1,.562.031.426.426,0,0,1,.192.332.464.464,0,0,1-.054.2l-.006.014a.7.7,0,0,1,.269.183.3.3,0,0,0,.036-.1l.058-.129c.08-.079.172-.037.3.021.092.042.309.14.381.106.052-.023.065-.115.077-.222a.284.284,0,0,1,.095-.233l.23-.008c.109.021.291.058.384-.008a.231.231,0,0,0,.083-.165c.031-.217-.122-.327-.548-.392" fill="#fff"/>
      <path id="Path_3990" data-name="Path 3990" d="M5.534,10.165l.032.019c0-.035,0-.072,0-.072,0-.036,0-.074,0-.113a.376.376,0,0,1,.126-.33c-.058-.012-.115-.021-.171-.029-.238-.033-.992-.035-.99-.138s.849-.158,1.131-.114a2.342,2.342,0,0,1,.373.094L5.95,9.261S5.915,9.14,5.9,9.115s-.016-.036-.025-.056c0-.005-.01-.008-.013-.013-.179-.261-.406-.459-.508-.441-.059.01-.074.042-.1.144-.015.064-.042.172-.152.194-.088.018-.152-.037-.258-.129-.124-.107-.333-.286-.488-.252-.053.011-.077.016-.044.218.018.106.043.253-.083.32l-.278-.006c-.116-.025-.275-.06-.351-.009-.012.007-.047.031-.064.122-.035.2.132.283.432.363l.2.1c.082.105,0,.213-.052.278-.114.144-.1.168-.05.211.162.145.3.07.481-.05l.2-.091a.335.335,0,0,1,.122.014.645.645,0,0,1,.665.138" fill="#fff"/>
      <path id="Path_3991" data-name="Path 3991" d="M15.092,10.911a1.027,1.027,0,0,0-.532.079.137.137,0,0,1-.2-.12l0-.023a1.922,1.922,0,0,1,.132-.351,9.187,9.187,0,0,0-.809.962.136.136,0,0,1-.247-.079.147.147,0,0,1,.009-.05,2.21,2.21,0,0,0,.07-.58,3.417,3.417,0,0,1,.152-1.017,3.371,3.371,0,0,1,.429-.811c-.106.047-.215.1-.3.14-.25.122-.341.168-.424.069l-.053-.288L13.31,8.73c-.03.145-.074.325-.14.555a.133.133,0,0,1-.234.049l-.006,0a2.838,2.838,0,0,1,.179.99c0,.071,0,.135-.005.191,0,.011-.17,1.19-.386,1.249a.134.134,0,0,1-.153-.057l-.2-.334-.39-.654a2.34,2.34,0,0,1-.323-1.309V9.389a.844.844,0,0,1-.645.077.487.487,0,0,1-.043-.033,1.163,1.163,0,0,1-.329.385l.07.022a1.651,1.651,0,0,1,1.22,1.526,6.493,6.493,0,0,1,.111,1.037.8.8,0,0,1-.13.548.187.187,0,0,1-.149.043,2.714,2.714,0,0,1-1.321-2.106c.022-.833-.276-1.056-.35-1.067l-.013,0a3.338,3.338,0,0,1,.044.412.319.319,0,0,1-.149.322.391.391,0,0,1-.263.009.468.468,0,0,1,.072.218.273.273,0,0,1-.006.049.233.233,0,0,1-.16.173,3.585,3.585,0,0,1-.417.116,3.01,3.01,0,0,1,1.337,1.389c.042.109.3.524.511.857.46.735.471.768.461.843a2.281,2.281,0,0,1-1.133,1.807l-.217.11a12.923,12.923,0,0,0-1.344.742l.042.019a.8.8,0,0,1,.481-.134,1,1,0,0,1,.491.136.138.138,0,0,1,.014-.049,1.213,1.213,0,0,1,1.263-.489,1.068,1.068,0,0,1,.093-.272c.047-.091.107-.193.168-.3a6.882,6.882,0,0,1,.5-.935c.073,0,.053.523-.268,1.073-.059.105-.118.2-.161.29a.853.853,0,0,0-.087.311.081.081,0,0,1,0,.022l0,0a1.411,1.411,0,0,0,0,.214,1.006,1.006,0,0,1,.468.135l.021-.012c0-.008,0-.017.005-.026.146-.423.409-.665.72-.665a.525.525,0,0,1,.386.156.77.77,0,0,1,.19.421,1.062,1.062,0,0,1,.168-.013,1.014,1.014,0,0,1,.508.147.967.967,0,0,1,.532-.133,1,1,0,0,1,.425.09l-.007-.045c-.1-.266-.313-.356-.586-.471A1.688,1.688,0,0,1,13.1,15.313a4.042,4.042,0,0,1-.21-1.161,3.83,3.83,0,0,1,.1-1.133,4.475,4.475,0,0,1,.17,1.113,3.761,3.761,0,0,0,.191,1.081,1.42,1.42,0,0,0,.93.872,1.189,1.189,0,0,1,.7.536c.007.013.039.085.072.163a.962.962,0,0,1,.263-.035,1,1,0,0,1,.495.145.94.94,0,0,1,.381-.119,3.164,3.164,0,0,0-1.013-.519l-.114-.048a2.4,2.4,0,0,1-1.386-1.135l-.02-.039a3.776,3.776,0,0,1,.187-3.08,2.584,2.584,0,0,1,1.252-1.029l0-.014" fill="#fff"/>
      <path id="Path_3992" data-name="Path 3992" d="M18.774,10.82c-.074-.032-.145-.063-.169-.142l.037-.238c.038-.083.052-.111-.062-.2-.045-.036-.24.005-.333.025l-.315.018a.377.377,0,0,1-.168-.145.359.359,0,0,1-.055.031,1.474,1.474,0,0,1-1.188-.1,1.092,1.092,0,0,1-.559.18l-.032.005.076.169a1.068,1.068,0,0,1,.775.042.25.25,0,0,1,.1.209.438.438,0,0,1-.015.088l.18.027c.337.039.548.07.637.186a.282.282,0,0,1,.061.175.447.447,0,0,1-.063.206l.085.028c.073.021.149.045.22.073l.1.014a.408.408,0,0,0,.256-.008c.019-.012.024-.022.031-.088l.079-.195.244-.039c.161.02.212.01.236-.047.062-.144.019-.188-.161-.266" fill="#fff"/>
      <path id="Path_3993" data-name="Path 3993" d="M17.965,12.207l-.141-.174a.172.172,0,0,1-.006-.044.294.294,0,0,1,.108-.2s.035-.041.045-.042a.894.894,0,0,0-.279-.111c-.155-.044-.257-.073-.3-.163a.177.177,0,0,1-.015-.073.372.372,0,0,1,.051-.161.368.368,0,0,0,.041-.1v0a1.752,1.752,0,0,0-.458-.088c-.284-.032-.413-.047-.433-.184l.016-.14.014-.057a1.462,1.462,0,0,0-.915.117,3.771,3.771,0,0,1,.54.33c.173.125.425.435.349.5s-.357-.169-.509-.279a3.342,3.342,0,0,0-.7-.34,1.988,1.988,0,0,0,.226.807.207.207,0,0,1,.23-.079c.083.031.117.115.186.281s.2.488.334.506.141-.022.172-.085a.185.185,0,0,1,.193-.126l.181.13c.084.087.225.232.331.228a.224.224,0,0,0,.181-.11.244.244,0,0,1,.184-.113l.123.028c.174.058.275.069.346-.037a.131.131,0,0,0,.029-.07c0-.038-.035-.078-.129-.152" fill="#fff"/>
      <path id="Path_3994" data-name="Path 3994" d="M13.712,1.548a.266.266,0,0,1,.322.1.77.77,0,0,1,.139.436,1.042,1.042,0,0,1-.257.633.333.333,0,0,1,.273.207.323.323,0,0,1,.019.115,1.2,1.2,0,0,1-.134.464.463.463,0,0,1,.294-.024l.014-.036c.076-.216.2-.578.5-.689l.172,0a.222.222,0,0,0-.019-.113.057.057,0,0,0-.056-.03.136.136,0,0,1-.065-.252c.168-.107.454-.36.384-.489a.332.332,0,0,0-.276-.193l-.138-.052c-.069-.059-.059-.142-.046-.248.03-.254.019-.4-.131-.436-.168-.042-.3.107-.434.29-.084.113-.157.21-.275.184l-.166-.108a.393.393,0,0,0-.123-.092,1.192,1.192,0,0,1,.022.212.911.911,0,0,1-.019.12" fill="#fff"/>
      <path id="Path_3995" data-name="Path 3995" d="M12.374,2.934a.609.609,0,0,1,.289.529,1.343,1.343,0,0,1-.156.556v0l.124.012.091,0c.028-.105.132-.491.212-.855a2.752,2.752,0,0,1,.178-.714c.1-.011.1.28.06.648a7.707,7.707,0,0,1-.189.976,1.8,1.8,0,0,1,.516-.308.931.931,0,0,1,.16-.084,1.538,1.538,0,0,0,.277-.673c-.016-.041-.072-.049-.176-.049a.205.205,0,0,1-.208-.089c-.043-.088.011-.154.074-.23.206-.249.389-.546.183-.858a.353.353,0,0,0-.136.053.18.18,0,0,1-.216.006.164.164,0,0,1-.037-.168.843.843,0,0,0-.038-.606.282.282,0,0,0-.219-.141c-.115-.015-.211.284-.263.445s-.081.256-.16.3l-.267.006c-.08-.021-.132-.033-.177-.006-.137.079.036.408.14.605.094.179.146.278.092.373a.183.183,0,0,1-.132.078.39.39,0,0,0-.3.109.216.216,0,0,0-.032.075.265.265,0,0,1,.308,0" fill="#fff"/>
      <path id="Path_3996" data-name="Path 3996" d="M15.122,3.143C15.1,3.1,15.076,3.015,15.05,3l-.071.011c-.175.066-.283.364-.338.525-.049.135-.084.233-.2.233l-.081-.015a.205.205,0,0,0-.236.053.569.569,0,0,1,.1.2.246.246,0,0,0,.015.045,1.425,1.425,0,0,1,.144.525,2.632,2.632,0,0,1,.254-.294c.248-.244.552-.45.616-.371.045.056-.194.288-.408.528-.069.078-.132.158-.189.231a.318.318,0,0,1,.253.014c.179.1.2.326.209.494,0,0,0,.036.007.069l.04,0a.874.874,0,0,1,.118.016.587.587,0,0,0,.267-.249c.021-.064,0-.1-.047-.163a.2.2,0,0,1-.054-.172.214.214,0,0,1,.1-.109,2.623,2.623,0,0,0,.317-.162.118.118,0,0,1,.049-.03c.171-.113.245-.211.249-.272.007-.1-.029-.125-.095-.172a.254.254,0,0,1-.138-.207L16.1,3.5c.1-.087.24-.217.243-.332a.213.213,0,0,0-.077-.155.336.336,0,0,0-.239-.123c-.162,0-.327.182-.438.3l-.25.173c-.14,0-.187-.136-.218-.225" fill="#fff"/>
      <path id="Path_3997" data-name="Path 3997" d="M16.368,4.786l.109-.055a.817.817,0,0,1,.636-.151,1.393,1.393,0,0,1,.289-.175c.257-.111.559-.226.6-.174s-.221.225-.46.368c-.077.046-.143.091-.2.131a.5.5,0,0,1,.158.3.609.609,0,0,1,.327.15l.046.031.077-.087c.146-.178.389-.475.747-.415a.7.7,0,0,0-.076-.251.142.142,0,0,1-.011-.105.138.138,0,0,1,.067-.081c.1-.052.307-.2.332-.325a.122.122,0,0,0-.035-.11c-.127-.154-.32-.1-.523-.036l-.22.027-.128-.145a.225.225,0,0,0-.171-.153c-.1-.025-.3.153-.412.249l-.273.157-.21-.131a1.012,1.012,0,0,1-.109-.1,1,1,0,0,0-.3.308l-.118.116-.073.005a.588.588,0,0,1-.255.372,1.315,1.315,0,0,1,.18.271" fill="#fff"/>
      <path id="Path_3998" data-name="Path 3998" d="M5.8,7.979c.119.157.008.358-.1.492a1.478,1.478,0,0,1,.188.173l0-.011a.541.541,0,0,1,.471-.217,1.391,1.391,0,0,1,.139-.1.1.1,0,0,0,.009-.045.407.407,0,0,0-.011-.078l-.03-.02a.629.629,0,0,1-.351-.5.49.49,0,0,1,.015-.122.479.479,0,0,1,.292-.338,1.528,1.528,0,0,1-.08-.26.846.846,0,0,1-.029-.141.015.015,0,0,1,0-.012l-.174.051c-.146.055-.3.111-.407.017l-.084-.111-.2-.265a.515.515,0,0,0-.464-.165c-.054.021-.065.073-.048.227.009.082.02.184-.072.237l-.2,0c-.2-.058-.3-.058-.378.1a.288.288,0,0,0-.019.269c.1.187.446.279.572.3a.138.138,0,0,1,.112.1.136.136,0,0,1-.053.142.379.379,0,0,0-.142.194L4.8,7.98c.046.053.134.029.327-.051s.486-.2.674.05" fill="#fff"/>
      <path id="Path_3999" data-name="Path 3999" d="M11.215,2.834c-.139.037-.125.291-.1.527.014.15.024.241-.041.306a.239.239,0,0,1-.224.047c-.082-.012-.1-.014-.13.054s.065.23.284.485c.091.105.128.148.115.221a.2.2,0,0,1-.083.121,1.488,1.488,0,0,1,.132.233.26.26,0,0,1,.151.082.605.605,0,0,1,.111.2.443.443,0,0,1,.194-.122,3.671,3.671,0,0,1-.074-.364c-.048-.333-.056-.7,0-.719.092-.025.172.371.25.706.034.147.073.278.1.361a.764.764,0,0,1,.365.2.6.6,0,0,1,.12-.391.486.486,0,0,1,.271-.159.986.986,0,0,1,.127-.3l-.155-.013c-.154,0-.385-.007-.421-.206l.055-.2c.159-.334.207-.575-.041-.744l-.107.091c-.058.061-.122.131-.221.109L11.719,3.2c-.11-.146-.314-.417-.5-.367" fill="#fff"/>
      <path id="Path_4000" data-name="Path 4000" d="M9.389,3.93l-.162.256c-.06.052-.1.09-.1.125s.057.071.4.122c-.023-.144-.047-.372.153-.459a.389.389,0,0,1,.356.04,2.181,2.181,0,0,0-.162-.31c-.089-.141-.341-.444-.254-.539s.421.28.526.46a2.357,2.357,0,0,1,.229.521.917.917,0,0,1,.262.086.817.817,0,0,1-.2-.442.323.323,0,0,1,.029-.136.336.336,0,0,1,.375-.213l0-.053c-.007-.073-.016-.164-.016-.259a1.13,1.13,0,0,1,.015-.183.2.2,0,0,0-.246.019.178.178,0,0,1-.177.04c-.091-.036-.093-.114-.1-.242-.006-.185-.023-.678-.246-.71-.054-.008-.124.119-.166.195-.058.1-.111.2-.219.208-.09.007-.147-.055-.24-.157-.269-.3-.472-.434-.716-.262-.184.129-.055.428.1.7l.061.211c-.022.078-.091.106-.157.134-.106.043-.188.084-.2.175-.027.239.225.332.531.421.178.052.332.1.324.249" fill="#fff"/>
      <path id="Path_4001" data-name="Path 4001" d="M5.835,6.53v0L5.643,6.29,5.63,6.279a.656.656,0,0,1,.256-.15.166.166,0,0,0,.148-.105c.029-.115-.063-.158-.17-.207-.555-.258-.636-.41-.607-.491.018-.049.111-.093.178-.125l.156-.1c.061-.069.044-.157.017-.289-.06-.3-.065-.486.089-.552.072-.029.14.034.258.179l.206.174c.156.039.237-.116.3-.229a.561.561,0,0,1,.108-.163c.106,0,.16.351.183.5.028.184.045.295.155.329.141.043.237-.07.294-.138s.077-.086.093-.081c.1.029.112.282.121.434.011.168.019.29.1.356a.288.288,0,0,0,.363-.027A.813.813,0,0,0,8.4,5.76l.123.014v.009a.434.434,0,0,1-.043.174,1.744,1.744,0,0,0-1.031-.041l-.079.016-.1,0-.278.106a.157.157,0,0,0-.014.025,2.463,2.463,0,0,1-.453-.423c-.221-.275-.324-.6-.406-.571-.165.064.048.5.164.668a2.726,2.726,0,0,0,.7.659l0,.013a1.36,1.36,0,0,0,.046.361.441.441,0,0,0-.246.327l-.005.018-.062.013-.017,0a.966.966,0,0,1-.081-.245.535.535,0,0,0-.144-.323c-.117-.088-.27-.031-.418.025L5.9,6.64Z" fill="#fff"/>
      <path id="Path_4002" data-name="Path 4002" d="M8.153,4.869l-.074.246-.053.15c0,.169.1.2.386.222.153.009.325.02.365.174a.539.539,0,0,1,0,.24.348.348,0,0,1,.054.007.789.789,0,0,1,.491.46A.711.711,0,0,1,9.438,6.3l.28,0a.974.974,0,0,1,.4.492.482.482,0,0,1,.619.147.476.476,0,0,1,.306.026.473.473,0,0,1,.135-.188.646.646,0,0,1-.189-.392,1.215,1.215,0,0,1-.964-.014.816.816,0,0,1-.494-.492.276.276,0,0,1,.058-.253l0,0a1.052,1.052,0,0,1-.135-.93c-.283-.042-.564-.118-.6-.348a.371.371,0,0,1-.054.006L8.57,4.252c-.264-.169-.5-.291-.708-.066-.1.11-.037.223.145.435Z" fill="#fff"/>
      <path id="Path_4003" data-name="Path 4003" d="M10.112,1.782c.409.06.46.585.473.884a.441.441,0,0,1,.366.03.37.37,0,0,1,.194-.127.486.486,0,0,1,.353.047,2.547,2.547,0,0,0,.024-.808A.313.313,0,0,0,11.4,1.9a.14.14,0,0,1-.159.036.138.138,0,0,1-.081-.141c.03-.266,0-.659-.137-.7-.117-.036-.131-.012-.158.037-.072.13-.163.119-.21.1l-.14-.136C10.4.957,10.14.627,9.951.714c-.146.068-.016.4.055.579.059.151.089.228.037.305a.254.254,0,0,1-.214.089c-.139.011-.175.029-.191.094a.3.3,0,0,0,.083.239.4.4,0,0,1,.391-.238" fill="#fff"/>
      <path id="Path_4004" data-name="Path 4004" d="M12.784,4.315l-.022-.028a.151.151,0,0,0,.026.024l0,0" fill="#fff"/>
      <path id="Path_4005" data-name="Path 4005" d="M16.978,8.288h0l-.017-.045c.01.028.018.038.018.044" fill="#fff"/>
      <path id="Path_4006" data-name="Path 4006" d="M14.559,45.492c.019.11-.316.153-.507.145-.279-.011-.558-.045-.54-.167s.273-.092.541-.081c.178.007.486-.006.506.1" fill="#fff" fill-rule="evenodd"/>
      <path id="Path_4007" data-name="Path 4007" d="M6.8,34.8h0l-.134,0a.136.136,0,0,1-.1-.049,1.171,1.171,0,0,0-.787-.394,2.17,2.17,0,0,0-.873.24,1.856,1.856,0,0,1-.716.2H3.5a.137.137,0,0,1-.137-.137V30.811l-.3.2v3.912H6.127a.139.139,0,0,1,.1.041.946.946,0,0,0,.521.252l.134,0a.94.94,0,0,0,.505-.249.138.138,0,0,1,.1-.042h3.068V31.01l-.305-.2v3.853a.137.137,0,0,1-.137.137H9.422a1.846,1.846,0,0,1-.716-.2,2.174,2.174,0,0,0-.873-.24,1.175,1.175,0,0,0-.788.394.134.134,0,0,1-.1.049l-.135,0Z" fill="#fff"/>
      <path id="Path_4008" data-name="Path 4008" d="M10.826,35.059a.137.137,0,0,1-.137.137H7.537a1.185,1.185,0,0,1-.624.289l-.194,0a1.174,1.174,0,0,1-.645-.291H2.921a.136.136,0,0,1-.136-.137v-4H2.5V35.5H6.053a.136.136,0,0,1,.1.048.853.853,0,0,0,.455.235,1.5,1.5,0,0,0,.4,0,.8.8,0,0,0,.439-.231.138.138,0,0,1,.105-.049h3.549v-4.44h-.281Z" fill="#fff"/>
      <path id="Path_4009" data-name="Path 4009" d="M5.692,30.1a1.457,1.457,0,0,0-.958.349.933.933,0,0,1-.556.244H3.636v3.836h.552a1.635,1.635,0,0,0,.607-.184,2.44,2.44,0,0,1,.982-.26,1.347,1.347,0,0,1,.891.385c0-.356,0-3.877,0-3.877-.006-.02-.153-.493-.981-.493m.443,3.218c-.007.033-.012.036-.044.049a1.5,1.5,0,0,0-.592.018l-.422.171-.225.107a1.749,1.749,0,0,1-.614.156.063.063,0,0,1-.063-.059.062.062,0,0,1,.059-.064,1.618,1.618,0,0,0,.569-.144l.22-.1.447-.179a1.627,1.627,0,0,1,.645-.02c.032.024.027.038.02.07m0-.815c-.007.033-.012.035-.044.049a1.467,1.467,0,0,0-.592.018l-.422.17-.225.107A1.749,1.749,0,0,1,4.238,33a.063.063,0,0,1-.063-.059.061.061,0,0,1,.059-.063,1.605,1.605,0,0,0,.569-.145l.22-.1.447-.179a1.6,1.6,0,0,1,.645-.019c.032.023.027.037.02.07m0-.8c-.007.033-.012.036-.044.049a1.519,1.519,0,0,0-.592.017l-.422.171-.225.107a1.749,1.749,0,0,1-.614.156.062.062,0,0,1,0-.123,1.571,1.571,0,0,0,.569-.144l.22-.1.447-.179a1.616,1.616,0,0,1,.645-.019c.032.023.027.037.02.07m0-.814c-.007.033-.012.036-.044.049a1.486,1.486,0,0,0-.592.018l-.422.17-.225.107a1.714,1.714,0,0,1-.614.155.062.062,0,0,1-.063-.058.061.061,0,0,1,.059-.063,1.605,1.605,0,0,0,.569-.145l.22-.105.447-.179a1.575,1.575,0,0,1,.645-.019c.032.023.027.037.02.07" fill="#fff"/>
      <path id="Path_4010" data-name="Path 4010" d="M6.942,34.8l-.134,0H6.8l-.134,0a.136.136,0,0,1-.1-.049,1.171,1.171,0,0,0-.787-.394,2.17,2.17,0,0,0-.873.24,1.856,1.856,0,0,1-.716.2H3.5a.136.136,0,0,1-.136-.137V30.812l-.306.2v3.913H6.127a.137.137,0,0,1,.1.041.946.946,0,0,0,.521.252l.134,0a.943.943,0,0,0,.505-.249.138.138,0,0,1,.1-.042h3.068V31.01l-.305-.2v3.853a.137.137,0,0,1-.137.137H9.422a1.856,1.856,0,0,1-.716-.2,2.174,2.174,0,0,0-.873-.24,1.175,1.175,0,0,0-.788.394.134.134,0,0,1-.1.049" fill="#fff"/>
      <path id="Path_4011" data-name="Path 4011" d="M11.107,31.063h-.281v4a.136.136,0,0,1-.136.136H7.537a1.18,1.18,0,0,1-.624.29l-.193,0a1.174,1.174,0,0,1-.646-.292H2.922a.136.136,0,0,1-.137-.136v-4h-.28V35.5H6.053a.137.137,0,0,1,.1.047.845.845,0,0,0,.455.236,1.54,1.54,0,0,0,.4,0,.8.8,0,0,0,.439-.232.137.137,0,0,1,.105-.048h3.549Z" fill="#fff"/>
      <path id="Path_4012" data-name="Path 4012" d="M9.433,30.693a.933.933,0,0,1-.557-.244,1.454,1.454,0,0,0-.958-.349c-.828,0-.975.473-.975.456v3.913a1.342,1.342,0,0,1,.89-.385,2.436,2.436,0,0,1,.982.261,1.631,1.631,0,0,0,.607.183h.551V30.693Zm-.066,3.116a1.737,1.737,0,0,1-.614-.155l-.224-.107L8.1,33.376a1.567,1.567,0,0,0-.592-.018.06.06,0,0,1-.071-.046.062.062,0,0,1,.047-.073,1.669,1.669,0,0,1,.646.019l.448.18.219.1a1.62,1.62,0,0,0,.569.145.061.061,0,0,1,.059.063.06.06,0,0,1-.063.058m0-.8a1.714,1.714,0,0,1-.614-.155l-.224-.107-.424-.17a1.525,1.525,0,0,0-.592-.018.061.061,0,0,1-.071-.047.06.06,0,0,1,.047-.072,1.626,1.626,0,0,1,.646.019l.448.18.219.1a1.631,1.631,0,0,0,.569.146.06.06,0,1,1,0,.12m0-.81a1.752,1.752,0,0,1-.614-.155l-.227-.108-.421-.17a1.5,1.5,0,0,0-.591-.018.061.061,0,1,1-.025-.119,1.621,1.621,0,0,1,.646.019l.446.178.221.106a1.6,1.6,0,0,0,.569.145.061.061,0,0,1,.059.063.062.062,0,0,1-.063.059m0-.811a1.742,1.742,0,0,1-.614-.155l-.225-.107L8.1,30.951a1.494,1.494,0,0,0-.591-.017c-.043-.008-.059-.022-.066-.055s.012-.048.041-.064a1.591,1.591,0,0,1,.646.018l.448.18.219.1a1.59,1.59,0,0,0,.569.144.063.063,0,0,1,.059.064.061.061,0,0,1-.063.058" fill="#fff"/>
      <path id="Path_4013" data-name="Path 4013" d="M17.823,34.8l.134,0a.132.132,0,0,0,.1-.049,1.181,1.181,0,0,1,.788-.394,2.179,2.179,0,0,1,.874.24,1.847,1.847,0,0,0,.715.2h.689a.136.136,0,0,0,.136-.137V30.811l.306.2v3.912H18.5a.138.138,0,0,0-.1.042.935.935,0,0,1-.5.249l-.134,0a.945.945,0,0,1-.52-.251.136.136,0,0,0-.1-.042H14.074V31.01l.3-.2v3.853a.137.137,0,0,0,.137.137H15.2a1.856,1.856,0,0,0,.716-.2,2.17,2.17,0,0,1,.873-.24,1.175,1.175,0,0,1,.788.394.134.134,0,0,0,.1.049l.134,0h0Z" fill="#fff"/>
      <path id="Path_4014" data-name="Path 4014" d="M21.841,35.059a.137.137,0,0,1-.137.137H18.552a1.185,1.185,0,0,1-.624.289l-.194,0a1.185,1.185,0,0,1-.646-.291H13.936a.136.136,0,0,1-.136-.137v-4h-.281V35.5h3.549a.138.138,0,0,1,.1.048.842.842,0,0,0,.455.235,1.5,1.5,0,0,0,.4,0,.8.8,0,0,0,.439-.231.138.138,0,0,1,.1-.049h3.549v-4.44h-.281Z" fill="#fff"/>
      <path id="Path_4015" data-name="Path 4015" d="M17.958,34.8l-.135,0h0l-.135,0a.132.132,0,0,1-.1-.049,1.185,1.185,0,0,0-.79-.394,2.174,2.174,0,0,0-.872.24,1.851,1.851,0,0,1-.715.2h-.689a.138.138,0,0,1-.138-.137V30.812l-.3.2v3.913h3.068a.14.14,0,0,1,.1.042.94.94,0,0,0,.518.251l.136,0a.953.953,0,0,0,.5-.249.135.135,0,0,1,.1-.042h3.069V31.01l-.305-.2v3.853a.137.137,0,0,1-.138.137h-.687a1.856,1.856,0,0,1-.716-.2,2.174,2.174,0,0,0-.873-.24,1.175,1.175,0,0,0-.788.394.134.134,0,0,1-.1.049" fill="#fff"/>
      <path id="Path_4016" data-name="Path 4016" d="M22.122,31.063h-.281v4a.136.136,0,0,1-.137.136H18.552a1.185,1.185,0,0,1-.624.29l-.194,0a1.17,1.17,0,0,1-.645-.292H13.936a.136.136,0,0,1-.136-.136v-4h-.281V35.5h3.549a.137.137,0,0,1,.1.047.84.84,0,0,0,.455.236,1.54,1.54,0,0,0,.4,0,.81.81,0,0,0,.439-.232.137.137,0,0,1,.1-.048h3.549Z" fill="#fff"/>
      <path id="Path_4017" data-name="Path 4017" d="M16.708,30.1a1.454,1.454,0,0,0-.957.349.935.935,0,0,1-.557.244h-.541v3.836H15.2a1.644,1.644,0,0,0,.608-.184,2.431,2.431,0,0,1,.981-.26,1.347,1.347,0,0,1,.891.385c0-.355,0-3.877,0-3.877,0-.02-.152-.493-.98-.493M15.24,31.262a1.6,1.6,0,0,0,.568-.145l.22-.105.447-.179a1.58,1.58,0,0,1,.646-.019.074.074,0,0,1,.044.076c-.007.032-.024.035-.068.043a1.481,1.481,0,0,0-.591.018l-.424.17-.224.107a1.718,1.718,0,0,1-.614.155.061.061,0,1,1,0-.121m0,.811a1.628,1.628,0,0,0,.568-.146l.222-.1.445-.178a1.61,1.61,0,0,1,.646-.02.061.061,0,1,1-.024.119,1.5,1.5,0,0,0-.591.018l-.423.17-.225.108a1.728,1.728,0,0,1-.614.155.062.062,0,0,1-.063-.059.06.06,0,0,1,.059-.062M17.1,33.364a1.52,1.52,0,0,0-.591.018l-.423.171-.225.107a1.752,1.752,0,0,1-.614.155.061.061,0,1,1,0-.122,1.6,1.6,0,0,0,.568-.144l.222-.1.446-.179a1.651,1.651,0,0,1,.645-.02s.032.015.026.074c0,.033-.023.042-.05.045m0-.81a1.52,1.52,0,0,0-.591.018l-.424.171-.224.106a1.72,1.72,0,0,1-.614.156.061.061,0,0,1-.063-.059.06.06,0,0,1,.059-.062,1.641,1.641,0,0,0,.568-.145l.219-.1.448-.18a1.624,1.624,0,0,1,.646-.019.061.061,0,0,1,.048.072.061.061,0,0,1-.072.047" fill="#fff"/>
      <path id="Path_4018" data-name="Path 4018" d="M18.849,34.084a1.349,1.349,0,0,0-.891.385V30.556c0,.017.147-.456.976-.456a1.449,1.449,0,0,1,.957.349.933.933,0,0,0,.557.244h.541v3.835h-.551a1.631,1.631,0,0,1-.607-.183,2.44,2.44,0,0,0-.982-.261m-.355-2.459a.061.061,0,0,0-.047.072.061.061,0,0,0,.072.047,1.515,1.515,0,0,1,.591.017l.424.172.224.107a1.762,1.762,0,0,0,.614.155.061.061,0,0,0,.063-.059.062.062,0,0,0-.059-.064,1.559,1.559,0,0,1-.568-.144l-.22-.1-.448-.18a1.634,1.634,0,0,0-.646-.018m0-.837a.061.061,0,0,0,.025.119,1.48,1.48,0,0,1,.591.018l.422.17.226.107a1.768,1.768,0,0,0,.614.156.061.061,0,0,0,.005-.122,1.623,1.623,0,0,1-.569-.144l-.222-.106-.446-.18a1.633,1.633,0,0,0-.646-.018m0,1.648a.061.061,0,1,0,.024.119,1.52,1.52,0,0,1,.591.018l.424.171.224.106a1.714,1.714,0,0,0,.614.155.06.06,0,0,0,.063-.058.061.061,0,0,0-.059-.063,1.588,1.588,0,0,1-.568-.145l-.22-.1-.447-.179a1.612,1.612,0,0,0-.646-.019m0,.81a.062.062,0,0,0-.048.072.061.061,0,0,0,.072.047,1.52,1.52,0,0,1,.591.018l.422.17.226.108a1.722,1.722,0,0,0,.614.154.06.06,0,0,0,.063-.058.062.062,0,0,0-.059-.063,1.584,1.584,0,0,1-.568-.145l-.222-.1-.445-.178a1.6,1.6,0,0,0-.646-.02" fill="#fff"/>
      <path id="Path_4019" data-name="Path 4019" d="M9.547,42.313a.926.926,0,0,0-.188-.172.481.481,0,0,1-.226.169l-.229.052c-.252.043-.6.1-.708.371a.846.846,0,0,0-.063.314.611.611,0,0,0,.069.3,1.153,1.153,0,0,0,.105-.049c-.073-.285.08-.562.123-.539s.016.175.032.3a.455.455,0,0,0,.036.126.394.394,0,0,0,.113-.1.391.391,0,0,1,.337-.363l.158.05c.152.065.505.216.641.088a2.77,2.77,0,0,0-.2-.548" fill="#fff"/>
      <path id="Path_4020" data-name="Path 4020" d="M13.516,43.647c-.032-.016-.058-.039-.088-.056h-.007c-.176,0-.981-.134-1.1-.159,0,0-.1-.025-.373.086a.912.912,0,0,0-.461.431,1.258,1.258,0,0,0,.124.083.759.759,0,0,1,.367-.313.791.791,0,0,1,.49-.042c.062.031-.207.106-.409.246a.76.76,0,0,0-.2.23l.017.006a.931.931,0,0,0,.3-.052l.287-.062c.132-.015,1.552-.005,1.951,0a1.01,1.01,0,0,0,.056-.139,2.893,2.893,0,0,1-.943-.258" fill="#fff"/>
      <path id="Path_4021" data-name="Path 4021" d="M14,46.1c.024.109-.38.153-.61.145-.337-.012-.672-.045-.651-.169s.329-.091.652-.079c.215.007.586-.006.609.1m-.611.62c-.023-.1-.371-.092-.574-.1-.3-.012-.59-.043-.611.076s.3.15.611.162c.216.007.6-.035.574-.14m-.68.642c-.016-.091-.275-.081-.425-.087-.226-.009-.44-.036-.455.067s.219.131.455.14c.16.007.442-.03.425-.12M7.242,39.71l-.072.024a.136.136,0,0,0,.085.259l.073-.023a.137.137,0,0,0-.086-.26m4.224-1.164a.1.1,0,0,0-.112-.034l-.751.251a.151.151,0,0,0-.057.2.161.161,0,0,0,.19.094l.7-.39a.089.089,0,0,0,.026-.118m.111.669a.1.1,0,0,0-.1-.053l-.583.087a.151.151,0,0,0-.09.183c.019.073.1.145.171.126l.56-.232a.087.087,0,0,0,.046-.111m.017.717a.1.1,0,0,0-.1-.069l-.458-.019a.135.135,0,0,0-.1.151c.006.068.066.141.134.135l.461-.1a.089.089,0,0,0,.062-.1m-.11.668a.088.088,0,0,0-.076-.073l-.342-.078a.122.122,0,0,0-.113.121.132.132,0,0,0,.1.138l.36-.024a.078.078,0,0,0,.068-.084m2.885-2.357a.138.138,0,0,0,.1.166s.4.119.7.247a.116.116,0,0,0,.15-.047.112.112,0,0,0-.047-.15,5.823,5.823,0,0,0-.741-.317.138.138,0,0,0-.165.1m.168.633a.123.123,0,0,0,.091.148,5.3,5.3,0,0,1,.529.177.1.1,0,0,0,.135-.042.1.1,0,0,0-.042-.134,3.49,3.49,0,0,0-.565-.24.122.122,0,0,0-.148.091m.058.58a.1.1,0,0,0,.074.12s.274.081.368.121a.093.093,0,0,0,.122-.037.091.091,0,0,0-.039-.122,1.071,1.071,0,0,0-.4-.157.1.1,0,0,0-.12.075m-.018.519a.089.089,0,0,0,.066.108s.163.036.239.061a.085.085,0,0,0,.109-.034A.081.081,0,0,0,14.956,40a.929.929,0,0,0-.272-.092.1.1,0,0,0-.107.066m1.3-.738a.138.138,0,0,0,.049.188,2.471,2.471,0,0,1,.413.287.114.114,0,0,0,.157,0,.111.111,0,0,0,0-.156,2.614,2.614,0,0,0-.431-.366.136.136,0,0,0-.187.048m-.093.633a.123.123,0,0,0,.05.166,1.3,1.3,0,0,1,.293.185.1.1,0,0,0,.14-.007.1.1,0,0,0-.006-.14,1.679,1.679,0,0,0-.31-.255.124.124,0,0,0-.167.051m-.147.5a.1.1,0,0,0,.036.137,1.6,1.6,0,0,1,.181.125.091.091,0,0,0,.126,0,.09.09,0,0,0,0-.127,1.072,1.072,0,0,0-.206-.17.1.1,0,0,0-.136.036m-.193.405a.091.091,0,0,0,.02.126.436.436,0,0,1,.1.068.086.086,0,0,0,.114.01.081.081,0,0,0,.009-.114c-.061-.074-.077-.094-.114-.11a.106.106,0,0,0-.125.02m1.3-.188a.1.1,0,0,0,0,.142.862.862,0,0,1,.109.13.092.092,0,0,0,.123.032A.091.091,0,0,0,17,40.768a.711.711,0,0,0-.121-.18.1.1,0,0,0-.141,0m-.281.374a.09.09,0,0,0,0,.126c.035.034.055.051.062.057.038.034.072.051.111.028a.083.083,0,0,0,.027-.111.248.248,0,0,0-.073-.1.1.1,0,0,0-.127,0M7.411,40.9c.115-.056-.154-.291-.081-.446.082-.171.66-.418.651-.514s-.777.142-.9.4c-.129.273.214.621.328.564m.854-1.51c.1.049.161-.057.2-.071a.136.136,0,0,1,.118,0,.1.1,0,0,1,.066.083c.006.019.007.119.092.138s.265-.3-.037-.446a.381.381,0,0,0-.3-.02c-.186.067-.243.272-.14.319m8.376-.214a4.371,4.371,0,0,0-5.047-1.226,5.065,5.065,0,0,0-1.365.531l-.332.155-1.045.129a5.763,5.763,0,0,0-1.281.6l-.4.218c-.643.346-.75.625-.751.628a.145.145,0,0,1-.074.082.257.257,0,0,0-.161.165.133.133,0,0,0,0,.028.137.137,0,0,0,.007.029l.139-.075a.137.137,0,1,1,.132.239l-.141.077a.479.479,0,0,0,.256.216l.059-.017a.453.453,0,0,1,.645.278l-.008.225a.487.487,0,0,1-.183.188,1.119,1.119,0,0,0,.412.013l.08-.007.149-.026a3.146,3.146,0,0,1,1.037-.078,2.108,2.108,0,0,1,1.006.62,2.687,2.687,0,0,1,.283.921A.651.651,0,0,1,9.7,43.6a1.113,1.113,0,0,1-.54.088s-.168.008-.168,0a2.17,2.17,0,0,0-.23.319h.15c.1-.1.232-.226.281-.189.032.023.011.1-.023.188h.3l.127,0c.177.005.506.016.608-.074l.145-.117.465-.384.485-.391.2-.158a2.9,2.9,0,0,0,.028-1.319.137.137,0,1,1,.271-.035,5.109,5.109,0,0,1,.034,1.15.137.137,0,0,1,.033.014,4.287,4.287,0,0,0,1.12.5,2.051,2.051,0,0,1-.3-.565,1.357,1.357,0,0,1-.082-.454,1.883,1.883,0,0,1,.533-1.155,1.252,1.252,0,0,0,.362-.674.426.426,0,0,0,0-.061l0-.02a.137.137,0,0,1,.273-.02,1.276,1.276,0,0,1-.414.945,1.326,1.326,0,0,0-.408,1.348,1.436,1.436,0,0,0,.584.792.22.22,0,0,1,.03.019c.027.016.05.036.078.05a2.812,2.812,0,0,0,1,.245.141.141,0,0,1,.1.049.14.14,0,0,1,.031.106,1.262,1.262,0,0,1-.144.418.134.134,0,0,1-.045.067.7.7,0,0,1-.1.115l-.489.353a19.8,19.8,0,0,0-1.614,1.189c-.772.638-1.221,1.535-1.108,1.911a.24.24,0,0,0,.241.177,3.187,3.187,0,0,0,2.739-1.412l.176-.187a8,8,0,0,0,1.026-1.458,1.554,1.554,0,0,1,.3-.439,4.584,4.584,0,0,0,1.57-2.854,3.119,3.119,0,0,0-.68-2.511" fill="#fff" fill-rule="evenodd"/>
      <path id="Path_4022" data-name="Path 4022" d="M20.067,44.382a1.514,1.514,0,0,0,.742-.1,1.232,1.232,0,0,0,.525-.425l.752,1.09a6.681,6.681,0,0,1-.938,1Z" fill="#fff"/>
      <path id="Path_4023" data-name="Path 4023" d="M3.352,43.86a1.226,1.226,0,0,0,.524.424,1.509,1.509,0,0,0,.752.1L3.516,45.952a6.744,6.744,0,0,1-.938-1c.156-.227.6-.839.774-1.093" fill="#fff"/>
      <path id="Path_4024" data-name="Path 4024" d="M6.921,53.169a1.506,1.506,0,0,1,.209-.2l.2-.167a10.7,10.7,0,0,0,.837-.733,3.838,3.838,0,0,1,1.325.847.6.6,0,0,1,.091.788c-.037.041-.1.1-.146.141l-.37.376H8.853c-1.093.009-1.842-.375-1.992-.74a.375.375,0,0,1,.06-.308" fill="#fff"/>
      <path id="Path_4025" data-name="Path 4025" d="M17.354,52.8l.2.164a1.563,1.563,0,0,1,.209.2.45.45,0,0,1,.04.341c-.149.365-.9.749-1.989.74H15.6l-.351-.409c-.044-.041-.126-.106-.165-.145a.659.659,0,0,1,.091-.787A3.836,3.836,0,0,1,16.5,52.06a10.567,10.567,0,0,0,.858.741" fill="#fff"/>
      <path id="Path_4026" data-name="Path 4026" d="M7.351,51.35,7.232,51.3a14.235,14.235,0,0,1-5.6-3.568,2.838,2.838,0,0,1-.6-3.151l.34-.73.326-.682a2.706,2.706,0,0,0,.228,1.252c.519,1.237,2.26,2.559,3.594,3.315.575.326,1.146.588,1.7.84,1.523.7,2.725,1.248,2.725,2.611V52.8c0,.066,0,.125-.008.181a1.08,1.08,0,0,0-.184-.3,6.312,6.312,0,0,0-2.4-1.333m-2.5-3.36c.025-.049.054-.1.08-.151-.191-.117-.378-.239-.561-.372-.028.046-.059.112-.083.16l.136.1c-.193.407-.379.8-.573,1.2-.047-.027-.094-.053-.141-.081-.025.048-.051.109-.077.156.308.214.624.4.946.584.093-.118.178-.231.272-.348l.008-.02-.138-.131a.972.972,0,0,1-.241.224,1.156,1.156,0,0,1-.367-.223c0-.1.425-.908.561-1.2a.657.657,0,0,1,.178.1m-1.473.1.222-.415-.119-.1-.076.11c-.023.012-.213-.148-.253-.184.082-.158.173-.336.264-.513a1.375,1.375,0,0,1,.31.283c.029.063-.054.192-.064.266.01.042.1.077.139.1.062-.135.136-.283.195-.42-.286-.22-.566-.445-.846-.675l-.083.145.124.113c-.216.416-.38.756-.6,1.168l-.125-.1c-.027.049-.052.094-.079.141a10.351,10.351,0,0,0,.85.708c.081-.116.167-.243.247-.36l.007-.016-.131-.133c-.027.042-.161.217-.193.219-.06,0-.294-.213-.34-.282a3.041,3.041,0,0,1,.249-.508,1.2,1.2,0,0,1,.236.209A.723.723,0,0,1,3.259,48l.12.093m4.986,1.49c-.411-.23-.85-.414-1.274-.614l-.215.409.172.1.167-.23a.873.873,0,0,1,.308.1c-.18.4-.378.831-.559,1.234-.063-.025-.126-.049-.189-.075-.024.05-.047.1-.071.147l.662.293c.023-.05.045-.1.068-.149L7.245,50.7c.182-.4.384-.834.564-1.234a.606.606,0,0,1,.257.183c-.03.083-.061.167-.092.25.015.032.141.066.185.088l.206-.406m-1.473-.7-.536-.269-.071.141.182.1c-.192.408-.488,1.332-.906,1.057-.3-.193-.186-.431-.021-.776.094-.193.2-.413.294-.6l.184.09.069-.147c-.2-.1-.394-.21-.591-.311-.024.049-.049.1-.074.146.042.022.084.044.126.068a1.969,1.969,0,0,1-.18.4c-.2.418-.4.743-.213,1.037a.789.789,0,0,0,.195.191.776.776,0,0,0,.361.139c.486.043.71-.615.975-1.182.045.02.09.039.135.06l.071-.147M2.819,46.472c.035.029.069.06.1.09.023-.053.047-.106.07-.158L2.572,46c-.023.052-.054.1-.081.152.042.05.1.1.147.144-.134.156-.647.714-.69.754l0,.007c-.021-.038.183-1.192.215-1.3l.14.159c.029-.05.059-.1.088-.148a6.011,6.011,0,0,1-.425-.572l-.1.136.077.133c-.04.146-.264,1.6-.278,1.757l.143.192a13.118,13.118,0,0,0,1.017-.944" fill="#fff"/>
      <path id="Path_4027" data-name="Path 4027" d="M23.054,47.733a14.227,14.227,0,0,1-5.6,3.569l-.118.047a6.321,6.321,0,0,0-2.407,1.333,1.073,1.073,0,0,0-.183.3c-.005-.057-.009-.116-.009-.181V51.189c0-1.363,1.2-1.914,2.725-2.611.553-.253,1.123-.514,1.7-.84,1.334-.757,3.076-2.079,3.594-3.316a2.69,2.69,0,0,0,.229-1.251l.325.682.341.73a2.836,2.836,0,0,1-.6,3.15m-5.215,2.013-.007,0c.014-.251.041-.474.071-.725l.012-.01c.095.2.172.373.273.576-.11.054-.238.114-.349.164m1.327-.174c.009.064.06.206.034.258a1.436,1.436,0,0,1-.467.254c-.082-.152-.139-.33-.217-.485a2.43,2.43,0,0,1,.387-.176l.074.126.155-.078c-.068-.153-.135-.307-.2-.46l-.152.074.039.146a1.678,1.678,0,0,1-.374.221c-.1-.2-.175-.385-.267-.585a2.729,2.729,0,0,1,.449-.211.728.728,0,0,1,.162.2l.146-.091a2.371,2.371,0,0,0-.19-.376c-.309.165-.693.36-1,.5-.044.572-.1,1.154-.151,1.719-.045.026-.09.058-.134.082l.063.15c.177-.072.35-.162.528-.234-.021-.051-.043-.1-.065-.15-.059.021-.114.05-.173.072.008-.186.015-.419.019-.6.136-.063.293-.137.428-.2.077.151.144.351.224.5-.053.031-.11.053-.163.084.024.05.049.1.073.147.338-.156.743-.361,1.076-.531-.041-.136-.081-.272-.122-.407l-.177.052M20.4,47.607l.116-.087c-.025-.048-.05-.1-.075-.145l-.5.335c.026.048.05.1.076.145l.165-.1c.051.237.118.93.13,1.093.006.065.013.128.02.192l0,.008c-.038.012-.167-.163-.2-.2l-.413-.47c-.061-.072-.132-.143-.19-.216l.186-.115c-.02-.051-.038-.1-.058-.154l-.629.357.059.153c.045-.022.09-.044.134-.067.08.093.177.187.26.278.192.2.386.4.579.6.083.081.166.166.249.249l.208-.123c-.026-.4-.052-.8-.078-1.2-.013-.163-.02-.364-.041-.526m1.515.561c-.343.287-.724-.156-.817-.58a.678.678,0,0,1,.069-.557l.1-.1a.429.429,0,0,1,.236-.084c.421.017.827.97.413,1.317m.139-1.361a.631.631,0,0,0-.854-.027l-.165.145a.96.96,0,0,0-.234.583,1.031,1.031,0,0,0,.026.274,1.187,1.187,0,0,0,.151.361.638.638,0,0,0,.859.265,1.007,1.007,0,0,0,.217-1.6" fill="#fff"/>
      <path id="Path_4028" data-name="Path 4028" d="M17.973,53.827c0,.018,0,.032,0,.051v2.266c0,.689-1.176.933-2.184.933H8.9c-1.007,0-2.183-.244-2.183-.933V53.878c0-.018,0-.033,0-.05a2.926,2.926,0,0,0,2.182.726h6.9a2.93,2.93,0,0,0,2.181-.727m-2.267,1.987c0-.22,0-.441,0-.66a.626.626,0,0,1,.265.016.35.35,0,0,1,.138.521c-.081.108-.224.126-.407.123m.753.52c-.068-.126-.171-.4-.306-.443l0-.016a.448.448,0,0,0,.191-.749c-.224-.178-.689-.135-1.082-.13l-.009.155v0c.055,0,.109.006.163.009v1.313l-.158.012c0,.052,0,.1-.005.155v0h.631c0-.053,0-.106,0-.159L15.7,56.48c0-.168,0-.336,0-.5a.565.565,0,0,1,.208.012c.156.066.247.524.378.655a1.985,1.985,0,0,0,.411,0l0-.163-.155-.012c-.05-.023-.067-.09-.093-.138m-3.828-.069a.324.324,0,0,1-.3.228c-.074.012-.189,0-.215-.037s-.017-.09-.016-.138a2.865,2.865,0,0,1,.011-.443c.286-.005.6.08.521.39m-.524-1.114c.183-.011.325,0,.4.113a.264.264,0,0,1,.044.191c-.036.21-.2.276-.451.26,0-.188,0-.376.005-.564m.455.613h-.009v-.016c.29-.117.441-.5.106-.684A2.584,2.584,0,0,0,11.639,55v.158l.171,0V56.48l-.171.013c0,.051,0,.1,0,.154a2.546,2.546,0,0,0,1.081-.093.426.426,0,0,0,.167-.6c-.086-.123-.176-.128-.321-.191m-2.156.05c0-.22,0-.441,0-.66a.625.625,0,0,1,.265.016.349.349,0,0,1,.138.521c-.08.108-.224.126-.407.123m.753.52c-.068-.126-.171-.4-.305-.443l0-.016a.447.447,0,0,0,.191-.749c-.224-.178-.689-.135-1.082-.13,0,.052,0,.1-.009.155v0c.055,0,.109.006.163.009v1.313l-.158.012c0,.052,0,.1-.005.155v0h.631c0-.053,0-.106.005-.159L10.4,56.48c0-.168,0-.336,0-.5a.564.564,0,0,1,.208.012c.157.066.247.524.378.655a1.985,1.985,0,0,0,.411,0l0-.163-.155-.012c-.05-.023-.067-.09-.093-.138m-2.551-.318c.076-.226.153-.452.228-.678l.016,0,.22.674Zm.4-1.041a.6.6,0,0,0-.236,0l-.561,1.493a.4.4,0,0,1-.147.016v.159h.582v-.163l-.187,0,.09-.293.561-.008a.979.979,0,0,1,.106.3l-.175.008v.159h.634v-.163l-.146,0-.521-1.505m5.145,1.53c-.434.071-.605-.482-.516-.9a.582.582,0,0,1,.293-.444l.13-.032a.47.47,0,0,1,.252.048c.379.23.364,1.237-.159,1.323m-.089-1.538-.212.041a.812.812,0,0,0-.455.382.92.92,0,0,0-.09.249,1.04,1.04,0,0,0,0,.365.735.735,0,0,0,.679.667.88.88,0,0,0,.855-1.245.72.72,0,0,0-.773-.459" fill="#fff"/>
      <path id="Path_4029" data-name="Path 4029" d="M24.039,28.991v.137c0,.076.006.137.006.137H.65S.644,29.2.644,29.128s.006-.137.006-.137Zm-.006,0V20.057H.648v8.934M10.6,25.9a.244.244,0,1,1-.244.243A.244.244,0,0,1,10.6,25.9m-1.747.568a.243.243,0,1,1-.094.331.243.243,0,0,1,.094-.331m.914-.255a.128.128,0,0,1,.127.127.127.127,0,0,1-.254,0,.128.128,0,0,1,.127-.127m1.688-.293a.128.128,0,1,1,0,.255.128.128,0,0,1,0-.255m2.824.223a.244.244,0,1,1-.244-.243.244.244,0,0,1,.244.243m1.6.656a.244.244,0,1,1-.095-.331.243.243,0,0,1,.095.331M15,26.34a.128.128,0,1,1-.128-.127A.128.128,0,0,1,15,26.34m-1.689-.292a.127.127,0,1,1-.128-.128.127.127,0,0,1,.128.128m-.993-3.015a.247.247,0,1,1-.249.247.247.247,0,0,1,.249-.247m0-.691a.247.247,0,1,1-.249.248.247.247,0,0,1,.249-.248m0-.692a.247.247,0,1,1-.249.247.247.247,0,0,1,.249-.247m-1.195.063a.248.248,0,1,1-.247.248.248.248,0,0,1,.247-.248m-.81-.266a.247.247,0,1,1-.248.247.247.247,0,0,1,.248-.247m-.837-.183a.247.247,0,1,1-.247.247.248.248,0,0,1,.247-.247m-.85.118a.247.247,0,1,1-.247.247.247.247,0,0,1,.247-.247m-.736.461a.247.247,0,1,1-.247.247.248.248,0,0,1,.247-.247m-.427.749a.247.247,0,1,1-.247.247.247.247,0,0,1,.247-.247m.008.87a.247.247,0,1,1-.247.246.247.247,0,0,1,.247-.246m.307.8a.247.247,0,1,1-.247.247.247.247,0,0,1,.247-.247m5.995-2.3a.247.247,0,1,1-.247-.248.246.246,0,0,1,.247.248m.811-.267a.248.248,0,1,1-.247-.247.247.247,0,0,1,.247.247m.837-.183a.248.248,0,1,1-.248-.247.247.247,0,0,1,.248.247m.849.118a.247.247,0,1,1-.247-.247.246.246,0,0,1,.247.247m.736.461a.247.247,0,1,1-.246-.247.247.247,0,0,1,.246.247m.428.749a.248.248,0,1,1-.248-.247.248.248,0,0,1,.248.247m-.009.869a.248.248,0,1,1-.247-.246.248.248,0,0,1,.247.246m-.307.8a.247.247,0,1,1-.247-.247.247.247,0,0,1,.247.247M14.691,28.45a1.419,1.419,0,0,1,.209-.1c.519-.242.707-.541.707-.76,0-.431-1.413-.914-3.3-.914S9,27.157,9,27.588c0,.22.2.522.735.764a2.135,2.135,0,0,1,.215.105c-.014.032-.19-.015-.25-.037-.587-.2-.974-.477-.974-.832,0-.771,1.843-1.187,3.579-1.187s3.577.416,3.577,1.187c0,.352-.383.63-.962.828,0,0-.248.066-.228.034m-2.373-2.829a8.6,8.6,0,0,0-2.853.426,3.5,3.5,0,0,0-.7.349.14.14,0,0,1-.129.01c-.071-.031-.082-.09-.1-.172a3.686,3.686,0,0,0-.38-1.114c-.028-.053.035-.111.081-.053a4.225,4.225,0,0,1,.542.977l0,.017.017-.008a3.814,3.814,0,0,1,.565-.262,8.869,8.869,0,0,1,2.949-.444h.012a8.871,8.871,0,0,1,2.95.444,3.766,3.766,0,0,1,.565.262l.017.008,0-.017a4.182,4.182,0,0,1,.541-.977c.047-.058.109,0,.082.053a3.7,3.7,0,0,0-.381,1.114c-.014.082-.024.141-.095.172a.142.142,0,0,1-.13-.01,3.467,3.467,0,0,0-.7-.349,8.6,8.6,0,0,0-2.854-.426Zm.539-4.627a.137.137,0,0,1-.137.136h-.259V21.4a.137.137,0,1,1-.274,0V21.13h-.259a.137.137,0,1,1,0-.273h.259V20.6a.137.137,0,0,1,.274,0v.252h.259a.137.137,0,0,1,.137.137M12.3,27.056c.989,0,2.862.159,2.862.759s-1.873.758-2.862.758-2.864-.158-2.864-.758,1.873-.759,2.864-.759m4.516-3.824a3.784,3.784,0,0,1-.869,1.94l0,0-.008.017v-.006a.665.665,0,0,1-.823.316c-.2-.065-.408-.1-.529-.337a.382.382,0,0,1,.024-.449c.034-.044.136-.1.182-.075a.1.1,0,0,1,.018.147.182.182,0,0,0,.081.266.132.132,0,0,0,.173-.031c0-.015-.144-.112-.012-.222.1-.078.365-.335.005-.5-.28-.133-.5.247-.524.3s-.059.032-.048-.021c.056-.273.287-.36.346-.661a.548.548,0,0,0-.2-.484.122.122,0,0,0-.125-.017.539.539,0,0,0-.357.364c-.062.3.118.471.064.743-.01.053-.048.061-.052,0s-.058-.494-.368-.48c-.4.017-.253.356-.19.467.079.153-.09.183-.1.192-.014.031.051.112.146.1a.181.181,0,0,0,.177-.214.1.1,0,0,1,.074-.128c.052,0,.125.085.139.139a.387.387,0,0,1-.152.425.934.934,0,0,1-.673.129c-.557-.059-.593-.4-.593-.4.116.05.374.141.374.141a.076.076,0,0,0,.027.005.087.087,0,0,0,.086-.087v-.535a.086.086,0,0,0-.086-.085A.165.165,0,0,0,13,24.2l-.382.152.108-.307a.075.075,0,0,0,.007-.033.086.086,0,0,0-.087-.087H12a.086.086,0,0,0-.086.087.075.075,0,0,0,.007.033l.107.307-.381-.152a.165.165,0,0,0-.033-.006.085.085,0,0,0-.085.085v.535a.084.084,0,0,0,.113.082s.257-.091.372-.141c0,0-.035.339-.592.4a.934.934,0,0,1-.673-.129A.387.387,0,0,1,10.6,24.6c.015-.054.088-.143.139-.139a.1.1,0,0,1,.074.128.181.181,0,0,0,.177.214c.1.009.161-.072.146-.1-.005-.009-.174-.039-.1-.192.063-.111.207-.45-.189-.467-.311-.014-.365.421-.369.48s-.042.051-.052,0c-.054-.272.126-.442.064-.743a.539.539,0,0,0-.357-.364.122.122,0,0,0-.125.017.551.551,0,0,0-.2.484c.059.3.291.388.346.661.011.053-.021.074-.047.021s-.244-.433-.525-.3c-.359.169-.1.426.005.5.133.11-.017.207-.012.222a.132.132,0,0,0,.173.031.182.182,0,0,0,.081-.266.1.1,0,0,1,.019-.147c.045-.024.147.031.181.075a.383.383,0,0,1,.025.449c-.121.233-.329.272-.53.337a.666.666,0,0,1-.823-.316v.006L8.7,25.177l0,0a3.787,3.787,0,0,1-.868-1.94,1.4,1.4,0,0,1,1.527-1.309,3.214,3.214,0,0,1,1.092.259,2.552,2.552,0,0,0,1.116.227v-.766a.137.137,0,0,1,.274,0v2.014h.971V21.643a.137.137,0,0,1,.274,0v.766a2.549,2.549,0,0,0,1.116-.227,3.225,3.225,0,0,1,1.092-.259,1.4,1.4,0,0,1,1.528,1.309M12.3,28.3c1.708,0,2.588-.34,2.588-.484s-.88-.485-2.588-.485-2.591.339-2.591.485.882.484,2.591.484m-.739-5.611a1.646,1.646,0,0,1-.253,0,1.349,1.349,0,0,1,.253.141Zm4.85,1.151a1.737,1.737,0,0,0,.131-.607A1.134,1.134,0,0,0,15.292,22.2a2.96,2.96,0,0,0-1,.242c-.136.049-.274.1-.414.142.039,0,.075-.009.116-.008a1.678,1.678,0,0,1,1.126.415,1.29,1.29,0,0,1,1.1.44,1.069,1.069,0,0,1,.19.411m-3.331-1.151v.144a1.3,1.3,0,0,1,.253-.142,1.647,1.647,0,0,1-.253,0m2.923.907a1.055,1.055,0,0,0-.93-.332.139.139,0,0,1-.113-.054,1.364,1.364,0,0,0-.974-.363,1.13,1.13,0,0,0-.895.346s-.008,0-.011.006v.35a1.47,1.47,0,0,1,.4-.3.874.874,0,0,1,.276-.075c.092-.007.172.02.173.052s-.214.116-.4.258a1.9,1.9,0,0,0-.336.341c.118-.024.188.03.188.095a.581.581,0,0,1,.489-.145c0-.019,0-.034.006-.055a.889.889,0,0,1,.636-.6.286.286,0,0,1,.227.047.885.885,0,0,1,.367.669.649.649,0,0,1-.012.13c0,.019-.01.033-.015.05a.628.628,0,0,1,.089.031.519.519,0,0,1,.337.414.432.432,0,0,1,0,.05.612.612,0,0,1-.192.412l.007.016a.289.289,0,0,1,.01.076.31.31,0,0,1-.111.232.3.3,0,0,0,.051,0,.676.676,0,0,0,.429-.508c.17-.578-.486-1.035-.417-1.132.033-.046.127,0,.127,0a1,1,0,0,1,.6.986c.043-.066.087-.137.13-.211v-.013a.944.944,0,0,0-.14-.78m-5.238-1.014c-.14-.043-.277-.092-.414-.142a2.978,2.978,0,0,0-1-.242A1.135,1.135,0,0,0,8.1,23.232a1.749,1.749,0,0,0,.131.6,1.083,1.083,0,0,1,.19-.409,1.29,1.29,0,0,1,1.1-.44,1.685,1.685,0,0,1,1.126-.415c.04,0,.077.006.116.008m1.789,3.426a.243.243,0,1,1-.242-.243.242.242,0,0,1,.242.243M11.565,23.2s-.008,0-.011-.006a1.13,1.13,0,0,0-.9-.346,1.363,1.363,0,0,0-.973.363.139.139,0,0,1-.113.054,1.059,1.059,0,0,0-.931.332.954.954,0,0,0-.139.78v.013c.043.074.087.143.13.21a1,1,0,0,1,.595-.985s.1-.044.128,0c.068.1-.588.554-.418,1.132a.679.679,0,0,0,.454.518l.026-.014a.31.31,0,0,1-.111-.232.338.338,0,0,1,.01-.076.118.118,0,0,1,.008-.016.609.609,0,0,1-.193-.412.432.432,0,0,1,0-.05.519.519,0,0,1,.337-.414.674.674,0,0,1,.089-.031.365.365,0,0,1-.014-.05.651.651,0,0,1-.013-.13.888.888,0,0,1,.367-.669.287.287,0,0,1,.228-.047.888.888,0,0,1,.635.6c0,.021,0,.036.006.055a.58.58,0,0,1,.095-.008.568.568,0,0,1,.4.153c0-.065.069-.119.187-.095a1.925,1.925,0,0,0-.335-.341c-.184-.142-.4-.224-.4-.258s.08-.059.172-.052a.874.874,0,0,1,.276.075,1.455,1.455,0,0,1,.4.3Z" fill="#fff"/>
      <path id="Path_4030" data-name="Path 4030" d="M24.755,19.415H0v12.5a19.813,19.813,0,0,0,2.469,9.52,2.3,2.3,0,0,0-1.14,1.2l-.467.977-.339.726a3.029,3.029,0,0,0-.3,1.306,3.929,3.929,0,0,0,.961,2.441A14.79,14.79,0,0,0,7.023,51.83l.39.156-.443.377-.191.154-.166.148c-.014.013-.066.069-.066.069a1.554,1.554,0,0,0-.4,1.144v2.267c0,.939,1.029,1.5,2.751,1.5h6.9c1.722,0,2.751-.561,2.751-1.5V53.878a1.561,1.561,0,0,0-.4-1.139l-.048-.059a1.965,1.965,0,0,0-.186-.148h.009s-.424-.361-.644-.546l.392-.157A14.788,14.788,0,0,0,23.5,48.087a3.929,3.929,0,0,0,.961-2.44,3.02,3.02,0,0,0-.3-1.31l-.335-.72-.463-.969a2.445,2.445,0,0,0-1.12-1.141,19.8,19.8,0,0,0,2.513-9.589ZM23.108,42.773l.46.965.336.72a2.752,2.752,0,0,1,.271,1.189,3.658,3.658,0,0,1-.9,2.264,14.513,14.513,0,0,1-5.717,3.655l-.829.332,1,.851c.017.012.151.122.154.125l.041.051a1.3,1.3,0,0,1,.331.953v2.267c0,.762-.922,1.216-2.467,1.216h-6.9c-1.545,0-2.467-.454-2.467-1.216V53.878a1.279,1.279,0,0,1,.328-.952l.05-.054.158-.138.193-.157.8-.68-.829-.331a14.518,14.518,0,0,1-5.718-3.655,3.657,3.657,0,0,1-.9-2.265,2.739,2.739,0,0,1,.27-1.184l.339-.728.465-.971a2,2,0,0,1,1.022-1.077c.046.08.089.165.136.245a1.389,1.389,0,0,0-.527.5,1.693,1.693,0,0,0-.237.893,2.561,2.561,0,0,0,.2.96l.2.486L3.392,43.3l.057.187a.882.882,0,0,0,.535.531,1.051,1.051,0,0,0,.142.043q.275.378.555.737L3.74,46.155l.207.164a13.808,13.808,0,0,0,1.717,1.173c.574.325,1.135.581,1.677.828a15.26,15.26,0,0,1,1.442.724c.334.282.653.54.953.772a2.061,2.061,0,0,1,.495,1.373V52.8a1.342,1.342,0,0,1-.348,1l-.423.472h5.764L14.8,53.8a1.341,1.341,0,0,1-.349-1V51.189a2.064,2.064,0,0,1,.378-1.232c.393-.3.822-.644,1.279-1.036.382-.209.8-.4,1.244-.606.548-.25,1.106-.506,1.665-.823a13.8,13.8,0,0,0,1.717-1.175l.207-.166-.906-1.31q.306-.39.6-.8c.02-.007.04-.01.061-.018a.882.882,0,0,0,.535-.531l.057-.187,1.012,1.464.2-.486a2.553,2.553,0,0,0,.2-.959,1.7,1.7,0,0,0-.237-.893,1.389,1.389,0,0,0-.477-.472c.038-.064.072-.132.109-.2a2.156,2.156,0,0,1,1,1.012M4.863,45.037A28.315,28.315,0,0,0,7.9,48.266q-.217-.1-.439-.2c-.537-.246-1.092-.5-1.655-.818A13.687,13.687,0,0,1,4.125,46.1l.738-1.061m9.728,8.95H10.1a1.621,1.621,0,0,0,.42-1.189V51.189a2.435,2.435,0,0,0-.166-.909c1.005.736,1.674,1.124,1.7,1.14l.326.186.328-.186c.027-.016.651-.378,1.6-1.068a2.56,2.56,0,0,0-.133.837V52.8a1.623,1.623,0,0,0,.421,1.189m2.326-5.782a28.627,28.627,0,0,0,2.938-3.13l.7,1.021a13.52,13.52,0,0,1-1.68,1.149c-.548.311-1.1.565-1.636.81l-.327.15m2.771-3.372a28.549,28.549,0,0,1-3.727,3.846l-1.357,1.1a21.317,21.317,0,0,1-2.04,1.4s-.11.064-.187.107l-.186-.107a22.072,22.072,0,0,1-2.222-1.534L8.925,48.8a28.557,28.557,0,0,1-3.894-4l-.182-.237c-.118-.151-.236-.3-.353-.46l-.2-.283c-.4-.549-.776-1.127-1.137-1.735l-.152-.254c-.041-.07-.078-.143-.118-.214l-.142-.26A19.541,19.541,0,0,1,.283,31.918V19.7H24.471V31.918A19.538,19.538,0,0,1,21.977,41.4l-.143.26c-.033.058-.063.119-.1.177l-.153.254c-.121.2-.241.4-.366.6l-.068.1q-.333.514-.682,1l-.22.306c-.124.169-.251.331-.378.494Z" fill="#fff"/>
      <path id="Path_4031" data-name="Path 4031" d="M5.16,8.442c-.088.062-.139.159-.171.154-.066-.013-.184-.207-.178-.249a1.923,1.923,0,0,1,.614-.226c.042.025-.051.232-.051.232a.681.681,0,0,0-.214.089" fill="#fff"/>
      <path id="Path_4032" data-name="Path 4032" d="M7.465,4.6l.065-.089c.077.142.284.4.29.455a.776.776,0,0,1-.066.3c-.023.04-.076-.006-.076-.006s-.08-.435-.048-.343c.016.047-.088-.183-.165-.313" fill="#fff"/>
      <path id="Path_4033" data-name="Path 4033" d="M11.845,2.236c.012-.118.018-.325.018-.325s.254.467.271.538-.158.117-.194.153a.735.735,0,0,0-.107.2L11.739,2.7s.094-.343.106-.461" fill="#fff"/>
      <path id="Path_4034" data-name="Path 4034" d="M8.334,3.725a4.049,4.049,0,0,0,.6.2c.012.047.036.14-.042.184-.118.064-.191-.13-.331-.22a1.223,1.223,0,0,0-.242-.118s-.059-.029-.053-.053" fill="#fff"/>
      <path id="Path_4035" data-name="Path 4035" d="M16.618,3.4a1.745,1.745,0,0,0-.269.381c.006.035.106-.018.106-.018s.354-.295.408-.354-.245-.009-.245-.009" fill="#fff"/>
    </g>
  </g>
</svg>
