<svg xmlns="http://www.w3.org/2000/svg" width="265.027" height="62.907" viewBox="0 0 265.027 62.907">
  <g id="logo-reverse" transform="translate(-485.971 -284.613)">
    <path id="Path_3890" data-name="Path 3890" d="M36.267,33.629h-.683V25.472H36.75c.842,3.894,3.132,7.5,7.39,7.5a5.824,5.824,0,0,0,5.987-5.74c0-3.812-3.335-4.55-6.347-5.615-.8-.286-1.607-.573-2.411-.82-3.736-1.147-5.584-4.016-5.584-7.911a7.223,7.223,0,0,1,7.312-7.5,8.579,8.579,0,0,1,5.865,2.049L50.489,5.8h.724v7.748H49.927c-.442-3.894-2.934-7.132-6.951-7.132A4.838,4.838,0,0,0,38,11.083c0,3.157,2.129,3.484,4.621,4.182,1,.286,1.807.574,2.49.779a18.54,18.54,0,0,1,2.652.943c3.374,1.64,4.58,4.345,4.58,8.034,0,5.165-3.294,8.977-8.476,8.977a9.06,9.06,0,0,1-5.7-2.09Z" transform="translate(507.416 288.711)" fill="#fff"/>
    <path id="Path_3891" data-name="Path 3891" d="M61.655,25.874h-.121a6.612,6.612,0,0,1-5.9,3.9c-3.857,0-4.863-2.051-4.863-3.977V13.945H48.155V12.922c2.01.082,4.46-.083,6.871-.165V25.506c0,1.681-.121,2.951,1.928,2.951,1.487,0,4.7-1.681,4.7-6.6V13.945H58.6V12.922c2.45.082,4.9-.083,7.312-.165V28.13h2.812v1.025a37.075,37.075,0,0,0-7.071.327Z" transform="translate(514.629 292.941)" fill="#fff"/>
    <path id="Path_3892" data-name="Path 3892" d="M69.714,16.641h.08c1.286-2.542,3.094-3.936,5.988-3.936,5.341,0,4.9,3.813,4.9,7.872v7.582h2.532v1.025H73.892V28.159h2.531V20.782c0-3.813.4-6.6-2.29-6.6-1.726,0-3.294,1.885-3.9,3.4a15.574,15.574,0,0,0-.522,5.165v5.411h2.531v1.025H62.723V28.159h2.732V13.977H62.723V12.952c2.049.082,4.5-.082,6.991-.165Z" transform="translate(522.988 292.911)" fill="#fff"/>
    <path id="Path_3893" data-name="Path 3893" d="M84.244,16.641h.08c1.286-2.542,3.094-3.936,5.987-3.936,5.345,0,4.9,3.813,4.9,7.872v7.582h2.532v1.025H88.422V28.159h2.531V20.782c0-3.813.4-6.6-2.29-6.6-1.726,0-3.294,1.885-3.9,3.4a15.575,15.575,0,0,0-.522,5.165v5.411h2.531v1.025H77.253V28.159h2.732V13.977H77.253V12.952c2.049.082,4.5-.082,6.991-.165Z" transform="translate(531.325 292.911)" fill="#fff"/>
    <path id="Path_3894" data-name="Path 3894" d="M92.689,13.887H90.681V12.862h9.388v1.025H97.443l4.55,9.962,3.9-9.962h-2.951V12.862h6.435v1.025h-2.255L99.9,32.374c-.861,2.173-2.5,6.312-5.247,6.312A2.245,2.245,0,0,1,92.4,36.6a1.973,1.973,0,0,1,1.967-2.09,2.136,2.136,0,0,1,2.01.984c.286.368.411,1.147,1.722-1.8a35.317,35.317,0,0,0,1.8-4.592Z" transform="translate(539.03 293.001)" fill="#fff"/>
    <path id="Path_3895" data-name="Path 3895" d="M106.262,7.026h-2.951V6a34.031,34.031,0,0,0,7.378-.615V19.939a5.693,5.693,0,0,1,4.879-3.033c4.632,0,7.91,4.344,7.91,8.731,0,4.263-3.2,8.361-7.787,8.361a6.172,6.172,0,0,1-5-2.828v2.542a40.7,40.7,0,0,0-7.378-.329V32.359h2.951Zm12.379,14.512c0-2.008-.943-3.812-3.114-3.812a5.174,5.174,0,0,0-4.838,4.877v5.74a5,5,0,0,0,4.8,4.836c2.339,0,3.157-1.763,3.157-3.853Z" transform="translate(546.276 288.711)" fill="#fff"/>
    <path id="Path_3896" data-name="Path 3896" d="M124.73,17.338c1.313-2.255,2.746-4.632,5.738-4.632,1.6,0,3.28.82,3.28,2.663,0,1.6-1.106,2.3-2.581,2.3A2.009,2.009,0,0,1,129.2,15.78a3.5,3.5,0,0,1,.083-.615c.123-.655.162-.9-.288-.9a2.3,2.3,0,0,0-1.722.944c-1.558,1.556-2.542,3.771-2.542,9.14v3.812h3.69v1.025H117.884V28.159H120.3V13.976H117.6V12.952c2.131.082,4.632-.082,7.132-.165Z" transform="translate(554.474 292.911)" fill="#fff"/>
    <path id="Path_3897" data-name="Path 3897" d="M137.761,12.705a8.835,8.835,0,0,1,8.609,8.649,8.61,8.61,0,0,1-17.217,0,8.835,8.835,0,0,1,8.609-8.649m0,.82c-4.018,0-3.73,3.2-3.73,7.83,0,5.329.082,7.623,3.73,7.623s3.73-2.295,3.73-7.623c0-4.632.288-7.83-3.73-7.83" transform="translate(561.102 292.911)" fill="#fff"/>
    <path id="Path_3898" data-name="Path 3898" d="M150.673,12.705a8.835,8.835,0,0,1,8.609,8.649,8.61,8.61,0,0,1-17.217,0,8.835,8.835,0,0,1,8.609-8.649m0,.82c-4.018,0-3.73,3.2-3.73,7.83,0,5.329.082,7.623,3.73,7.623s3.73-2.295,3.73-7.623c0-4.632.288-7.83-3.73-7.83" transform="translate(568.511 292.911)" fill="#fff"/>
    <path id="Path_3899" data-name="Path 3899" d="M154.437,33.383V32.359h2.623V7.026H154.11V6a34.031,34.031,0,0,0,7.378-.615V32.359h2.542v1.025Zm10.617-16.232h8.815v1.025h-3.607l-4.51,4.345,7.707,9.838h1.6v1.025h-9.14V32.359h2.337l-6.271-7.993,6.476-6.19h-3.4Z" transform="translate(575.422 288.711)" fill="#fff"/>
    <path id="Path_3900" data-name="Path 3900" d="M37.368,36.42c0-1.136-.017-1.435-.433-1.487l-.5-.069c-.143-.017-.179-.386,0-.438.991-.069,2-.105,2.99-.105,1.674,0,3.494.263,3.494,2.1a2.036,2.036,0,0,1-1.6,1.87.2.2,0,0,0,0,.263,10.671,10.671,0,0,0,2.287,2.8,1.656,1.656,0,0,0,.954.368.206.206,0,0,1,0,.279,2.54,2.54,0,0,1-.755.088,2.871,2.871,0,0,1-2.521-1.311c-.45-.559-.936-1.33-1.316-1.889a.845.845,0,0,0-.721-.28c-.467,0-.5.036-.5.28v1.242c0,1.207.072,1.292.847,1.4l.414.052c.126.087.109.384-.036.436-.755-.035-1.35-.052-1.909-.052-.576,0-1.135.017-1.764.052a.25.25,0,0,1-.036-.436l.269-.052c.776-.159.847-.192.847-1.4ZM38.738,37.7c0,.436.019.436.9.436,1.171,0,1.783-.455,1.783-1.66a1.673,1.673,0,0,0-1.892-1.643c-.666,0-.792.035-.792.488Z" transform="translate(507.736 305.313)" fill="#fff"/>
    <path id="Path_3901" data-name="Path 3901" d="M45.4,36.211c0-1.207-.072-1.259-.755-1.4l-.253-.054a.287.287,0,0,1,.036-.436q.784.052,1.674.052h2.557a15.947,15.947,0,0,0,1.676-.052c.017.211.107,1.031.2,1.783a.329.329,0,0,1-.469.035,2.384,2.384,0,0,0-.324-.839c-.288-.42-1.1-.42-1.531-.42h-.792c-.631,0-.648.019-.648.56v1.94c0,.315,0,.349.342.349h.847c.954,0,1.045-.14,1.188-.664l.091-.332a.309.309,0,0,1,.45.035c-.036.507-.036.822-.036,1.224,0,.436,0,.751.036,1.259a.311.311,0,0,1-.45.035l-.091-.334c-.143-.524-.234-.664-1.188-.664H47.11c-.342,0-.342.054-.342.4v1.259a2.518,2.518,0,0,0,.2,1.259c.162.175.486.244,1.512.244,1.152,0,1.819-.052,2.342-1.451.126-.123.414-.087.467.069a6.3,6.3,0,0,1-.54,1.942c-1.135-.036-2.09-.054-3.061-.054H46.1c-.576,0-1.135.017-2,.054a.288.288,0,0,1-.036-.438l.486-.052c.774-.088.847-.192.847-1.4Z" transform="translate(512.235 305.313)" fill="#fff"/>
    <path id="Path_3902" data-name="Path 3902" d="M53.687,38.465a2.478,2.478,0,0,1-1.605-2.1c0-1.276,1.01-2.169,2.828-2.169a8.959,8.959,0,0,1,1.676.263,4.331,4.331,0,0,1,.252,1.712c-.055.14-.378.159-.467.035a1.771,1.771,0,0,0-1.676-1.5c-1.062,0-1.457.595-1.457,1.188,0,.631.485,1.015,1.2,1.382l1.117.56a2.493,2.493,0,0,1,1.46,2.221c0,1.363-1.154,2.219-2.937,2.219a3.774,3.774,0,0,1-2.069-.541,3.581,3.581,0,0,1-.381-1.8A.284.284,0,0,1,52.1,39.9a2.5,2.5,0,0,0,2.142,1.871c.919,0,1.514-.453,1.514-1.259,0-.56-.236-1.136-1.262-1.643Z" transform="translate(516.624 305.244)" fill="#fff"/>
    <path id="Path_3903" data-name="Path 3903" d="M59.609,36.211c0-1.207-.072-1.259-.755-1.4l-.253-.054c-.126-.069-.107-.365.036-.436q.784.052,1.674.052h2.557a15.946,15.946,0,0,0,1.676-.052c.017.211.107,1.031.2,1.783a.329.329,0,0,1-.469.035,2.384,2.384,0,0,0-.324-.839c-.288-.42-1.1-.42-1.531-.42h-.792c-.631,0-.648.019-.648.56v1.94c0,.315,0,.349.341.349h.847c.954,0,1.045-.14,1.188-.664l.091-.332a.309.309,0,0,1,.45.035c-.036.507-.036.822-.036,1.224,0,.436,0,.751.036,1.259a.311.311,0,0,1-.45.035l-.091-.334c-.143-.524-.234-.664-1.188-.664h-.847c-.341,0-.341.054-.341.4v1.259a2.518,2.518,0,0,0,.2,1.259c.162.175.486.244,1.512.244,1.152,0,1.819-.052,2.342-1.451.126-.123.414-.087.467.069a6.3,6.3,0,0,1-.54,1.942c-1.135-.036-2.09-.054-3.063-.054H60.31c-.576,0-1.135.017-2,.054a.288.288,0,0,1-.036-.438l.486-.052c.774-.088.847-.192.847-1.4Z" transform="translate(520.388 305.313)" fill="#fff"/>
    <path id="Path_3904" data-name="Path 3904" d="M68.452,39.311c-.414,0-.469.017-.612.42l-.415,1.119c-.2.56-.143.628.2.7l.486.088c.145.088.127.4-.054.436-.45-.035-.919-.052-1.423-.052s-.936.036-1.261.052a.275.275,0,0,1-.036-.436l.414-.088c.559-.123.757-.315,1.117-1.154l1.73-4.021a5.415,5.415,0,0,0,.467-1.468,1.56,1.56,0,0,0,.757-.664c.143-.052.252-.017.288.087.071.176.359,1.084.774,2.151L72.5,40.658c.216.576.378.8,1.026.927l.288.052a.251.251,0,0,1-.054.436c-.469-.035-.883-.052-1.5-.052-.648,0-1.171.017-1.621.052a.25.25,0,0,1-.036-.436l.36-.052c.469-.071.45-.175.234-.718l-.433-1.136c-.143-.4-.2-.42-.612-.42Zm1.423-.559c.467,0,.522-.035.324-.543l-.559-1.486a3.28,3.28,0,0,0-.269-.628h-.036a3.69,3.69,0,0,0-.288.593L68.4,38.245c-.2.472-.162.507.233.507Z" transform="translate(524.436 305.254)" fill="#fff"/>
    <path id="Path_3905" data-name="Path 3905" d="M74.7,36.42c0-1.136-.017-1.435-.433-1.487l-.5-.069c-.143-.017-.179-.386,0-.438.991-.069,2-.105,2.99-.105,1.674,0,3.494.263,3.494,2.1a2.036,2.036,0,0,1-1.6,1.87.2.2,0,0,0,0,.263,10.672,10.672,0,0,0,2.287,2.8,1.656,1.656,0,0,0,.954.368.206.206,0,0,1,0,.279,2.54,2.54,0,0,1-.755.088,2.871,2.871,0,0,1-2.521-1.311c-.45-.559-.936-1.33-1.316-1.889a.845.845,0,0,0-.721-.28c-.467,0-.5.036-.5.28v1.242c0,1.207.072,1.292.847,1.4l.414.052c.126.087.109.384-.036.436-.755-.035-1.35-.052-1.909-.052-.576,0-1.135.017-1.764.052a.25.25,0,0,1-.036-.436l.269-.052c.774-.159.847-.192.847-1.4ZM76.066,37.7c0,.436.019.436.9.436,1.171,0,1.783-.455,1.783-1.66a1.673,1.673,0,0,0-1.892-1.643c-.666,0-.792.035-.792.488Z" transform="translate(529.154 305.313)" fill="#fff"/>
    <path id="Path_3906" data-name="Path 3906" d="M88.938,34.532a15.23,15.23,0,0,0,.162,1.923.313.313,0,0,1-.469.035,2.277,2.277,0,0,0-2.5-1.783A3.041,3.041,0,0,0,83.049,38.1a3.345,3.345,0,0,0,3.24,3.67,2.8,2.8,0,0,0,2.594-1.764.283.283,0,0,1,.469.016,4.978,4.978,0,0,1-.595,1.887,9.89,9.89,0,0,1-2.431.368,5.637,5.637,0,0,1-3.17-.8,3.688,3.688,0,0,1-1.711-3.111,3.794,3.794,0,0,1,1.512-3.146A5.844,5.844,0,0,1,86.47,34.2a13.715,13.715,0,0,1,2.468.332" transform="translate(533.73 305.244)" fill="#fff"/>
    <path id="Path_3907" data-name="Path 3907" d="M96.022,37.731c.576,0,.648,0,.648-.455V36.211c0-1.206-.072-1.276-.845-1.4l-.343-.055c-.126-.085-.107-.384.036-.436.7.035,1.262.052,1.838.052s1.133-.017,1.837-.052c.145.052.161.351.035.436l-.342.055c-.774.121-.847.192-.847,1.4v3.916c0,1.207.072,1.294.847,1.4l.414.052c.126.088.109.384-.035.438-.757-.036-1.352-.054-1.909-.054-.576,0-1.136.017-1.838.054a.288.288,0,0,1-.036-.438l.343-.052c.773-.123.845-.192.845-1.4v-1.38c0-.437-.035-.456-.648-.456h-3.17c-.611,0-.648.019-.648.456v1.38c0,1.207.072,1.311.847,1.4l.486.052c.126.088.109.384-.035.438-.829-.036-1.424-.054-1.981-.054-.576,0-1.135.017-1.693.054-.145-.054-.162-.349-.036-.438l.2-.052c.757-.192.845-.192.845-1.4V36.211c0-1.206-.071-1.294-.845-1.4l-.415-.055c-.126-.085-.107-.384.038-.436.774.035,1.333.052,1.909.052s1.133-.017,1.764-.052c.145.052.162.351.036.436l-.271.055c-.755.138-.847.192-.847,1.4v1.065c0,.455.072.455.648.455Z" transform="translate(538.347 305.313)" fill="#fff"/>
    <path id="Path_3908" data-name="Path 3908" d="M105.452,36.211c0-1.207-.071-1.276-.845-1.4l-.343-.054c-.126-.085-.107-.384.036-.436.7.035,1.261.052,1.838.052s1.133-.017,1.837-.052c.143.052.162.351.036.436l-.343.054c-.774.123-.847.192-.847,1.4v3.916c0,1.207.072,1.276.847,1.4l.343.052a.288.288,0,0,1-.036.438c-.685-.036-1.279-.054-1.837-.054-.578,0-1.136.017-1.838.054a.288.288,0,0,1-.036-.438l.343-.052c.774-.123.845-.192.845-1.4Z" transform="translate(546.774 305.313)" fill="#fff"/>
    <path id="Path_3909" data-name="Path 3909" d="M117.371,37.067c0-1.748-.109-2.2-.774-2.255l-.576-.054a.287.287,0,0,1,.035-.436c.667.035,1.081.052,1.6.052s.919-.017,1.5-.052a.285.285,0,0,1,.019.436l-.541.054c-.469.054-.612.524-.612,2.255V40c0,.349,0,1.766.053,2.027a.355.355,0,0,1-.378.159c-.2-.244-.559-.612-1.674-1.783l-2.738-2.833c-.685-.7-1.152-1.154-1.386-1.346-.072,0-.072.192-.072.735v2.306c0,1.75.109,2.2.774,2.257l.576.052a.275.275,0,0,1-.035.436c-.667-.035-1.081-.052-1.6-.052s-.866.017-1.5.052a.285.285,0,0,1-.019-.436l.541-.052c.469-.054.611-.526.611-2.257V36.14c0-.576-.016-.822-.378-1.083a2.125,2.125,0,0,0-.666-.246l-.269-.054a.275.275,0,0,1,.035-.436c.686.052,1.171.052,1.549.052a4.674,4.674,0,0,0,.721-.052,10.388,10.388,0,0,0,1.766,2.15l1.693,1.7c.4.384,1.442,1.487,1.638,1.624.109-.033.109-.279.109-.7Z" transform="translate(549.982 305.313)" fill="#fff"/>
    <path id="Path_3910" data-name="Path 3910" d="M120.965,38.465a2.472,2.472,0,0,1-1.6-2.1c0-1.276,1.007-2.169,2.825-2.169a8.959,8.959,0,0,1,1.676.263,4.273,4.273,0,0,1,.252,1.712c-.054.14-.378.159-.467.035a1.772,1.772,0,0,0-1.674-1.5c-1.064,0-1.459.595-1.459,1.188,0,.631.485,1.015,1.206,1.382l1.116.56a2.493,2.493,0,0,1,1.46,2.221c0,1.363-1.152,2.219-2.937,2.219a3.769,3.769,0,0,1-2.07-.541,3.568,3.568,0,0,1-.379-1.8.281.281,0,0,1,.467-.036,2.5,2.5,0,0,0,2.143,1.871c.917,0,1.512-.453,1.512-1.259,0-.56-.233-1.136-1.259-1.643Z" transform="translate(555.227 305.244)" fill="#fff"/>
    <path id="Path_3911" data-name="Path 3911" d="M128.668,35.457c0-.455-.017-.455-.378-.455h-.559c-1.1,0-1.567.1-2,1.311a.316.316,0,0,1-.45-.088c.2-.751.4-1.626.486-2.062a.279.279,0,0,1,.324,0c.017.349.269.332.99.332h5.008c.666,0,.793-.017.936-.332a.245.245,0,0,1,.324.052,7.134,7.134,0,0,0-.181,2.046.293.293,0,0,1-.45.016c-.126-1.135-.595-1.275-1.674-1.275h-.612c-.343,0-.4,0-.4.455v4.791c0,1.207.072,1.311.847,1.4l.486.052c.126.087.107.384-.036.436-.738-.035-1.423-.052-1.98-.052-.578,0-1.226.017-1.981.052-.145-.052-.164-.349-.038-.436l.488-.052c.773-.088.845-.192.845-1.4Z" transform="translate(558.883 305.192)" fill="#fff"/>
    <path id="Path_3912" data-name="Path 3912" d="M134.589,36.211c0-1.207-.071-1.276-.845-1.4l-.343-.054c-.126-.085-.107-.384.036-.436.7.035,1.261.052,1.838.052s1.133-.017,1.835-.052c.145.052.164.351.038.436l-.343.054c-.774.123-.847.192-.847,1.4v3.916c0,1.207.072,1.276.847,1.4l.343.052a.287.287,0,0,1-.038.438c-.683-.036-1.278-.054-1.835-.054-.578,0-1.136.017-1.838.054a.288.288,0,0,1-.036-.438l.343-.052c.774-.123.845-.192.845-1.4Z" transform="translate(563.493 305.313)" fill="#fff"/>
    <path id="Path_3913" data-name="Path 3913" d="M142.1,35.457c0-.455-.017-.455-.378-.455h-.559c-1.1,0-1.567.1-2,1.311a.316.316,0,0,1-.45-.088c.2-.751.4-1.626.486-2.062a.279.279,0,0,1,.324,0c.017.349.269.332.99.332h5.008c.666,0,.792-.017.936-.332a.245.245,0,0,1,.324.052,7.133,7.133,0,0,0-.181,2.046.293.293,0,0,1-.45.016c-.126-1.135-.595-1.275-1.674-1.275h-.612c-.343,0-.4,0-.4.455v4.791c0,1.207.072,1.311.847,1.4l.486.052c.126.087.107.384-.036.436-.738-.035-1.423-.052-1.98-.052-.578,0-1.226.017-1.981.052-.145-.052-.164-.349-.038-.436l.488-.052c.773-.088.845-.192.845-1.4Z" transform="translate(566.589 305.192)" fill="#fff"/>
    <path id="Path_3914" data-name="Path 3914" d="M147.884,36.211c0-1.207-.091-1.242-.847-1.4l-.252-.054c-.126-.085-.109-.384.036-.436.612.035,1.169.052,1.747.052s1.135-.017,1.838-.052c.142.052.161.351.035.436l-.343.054c-.774.123-.845.192-.845,1.4v2.465c0,1.748.593,2.938,2.34,2.938,1.623,0,2.324-1.19,2.324-2.921V37.067c0-1.748-.109-2.15-.883-2.255l-.379-.054a.286.286,0,0,1,.038-.436c.576.035.99.052,1.512.052s.919-.017,1.5-.052a.285.285,0,0,1,.019.436l-.541.054c-.469.054-.612.524-.612,2.255V38.8c0,2.238-1.064,3.409-3.351,3.409a3.666,3.666,0,0,1-2.557-.735,3.265,3.265,0,0,1-.774-2.465Z" transform="translate(571.172 305.313)" fill="#fff"/>
    <path id="Path_3915" data-name="Path 3915" d="M158.548,35.457c0-.455-.017-.455-.378-.455h-.559c-1.1,0-1.567.1-2,1.311a.316.316,0,0,1-.45-.088c.2-.751.4-1.626.486-2.062a.279.279,0,0,1,.324,0c.017.349.269.332.99.332h5.008c.666,0,.793-.017.936-.332a.245.245,0,0,1,.324.052,7.134,7.134,0,0,0-.181,2.046.293.293,0,0,1-.45.016c-.126-1.135-.595-1.275-1.675-1.275h-.612c-.343,0-.4,0-.4.455v4.791c0,1.207.072,1.311.847,1.4l.486.052c.126.087.107.384-.036.436-.738-.035-1.423-.052-1.98-.052-.578,0-1.226.017-1.981.052-.145-.052-.164-.349-.038-.436l.488-.052c.773-.088.845-.192.845-1.4Z" transform="translate(576.027 305.192)" fill="#fff"/>
    <path id="Path_3916" data-name="Path 3916" d="M164.523,36.211c0-1.207-.071-1.259-.755-1.4l-.253-.054c-.126-.069-.107-.365.038-.436.521.035,1.08.052,1.673.052h2.559a15.931,15.931,0,0,0,1.674-.052c.019.211.109,1.031.2,1.783a.328.328,0,0,1-.467.035,2.45,2.45,0,0,0-.324-.839c-.29-.42-1.1-.42-1.531-.42h-.793c-.629,0-.648.019-.648.56v1.94c0,.315,0,.349.343.349h.847c.954,0,1.043-.14,1.188-.664l.091-.332a.31.31,0,0,1,.45.035c-.038.507-.038.822-.038,1.224,0,.436,0,.751.038,1.259a.311.311,0,0,1-.45.035l-.091-.334c-.145-.524-.234-.664-1.188-.664h-.847c-.343,0-.343.054-.343.4v1.259a2.536,2.536,0,0,0,.2,1.259c.162.175.486.244,1.512.244,1.152,0,1.819-.052,2.342-1.451a.315.315,0,0,1,.469.069,6.346,6.346,0,0,1-.54,1.942c-1.135-.036-2.09-.054-3.063-.054h-1.586c-.574,0-1.133.017-2,.054a.287.287,0,0,1-.038-.438l.488-.052c.774-.088.845-.192.845-1.4Z" transform="translate(580.585 305.313)" fill="#fff"/>
    <path id="Subtraction_1" data-name="Subtraction 1" d="M14.371,19c-3.122,0-5.289-.65-6.44-1.933C6.616,15.6,5.338,12.365,4.1,9.239,2.786,5.913,1.427,2.474,0,1.082A52.208,52.208,0,0,1,9.85,0a21.762,21.762,0,0,1,6.269.786,7.679,7.679,0,0,1,4.243,2.8c1.273,1.851,1.5,5.708,1.46,8.619a58.811,58.811,0,0,1-.389,5.933l-.012,0A34.378,34.378,0,0,1,14.371,19ZM4.554,2.744l-.089.2a55.27,55.27,0,0,1,7.35,5.122A54.488,54.488,0,0,1,20.346,16.3l.137-.184c-.452-.645-1-1.351-1.724-2.221a3.882,3.882,0,0,1-.18-2.414V11.47l.007-.049c.026-.211.055-.43.077-.657a4.074,4.074,0,0,0-1.224-3.776l-.11.1a6.361,6.361,0,0,1-.021,2.443l0,.029c-.017.137-.033.277-.05.417a5.159,5.159,0,0,0,.431,2.671c-.888-.981-1.9-1.993-3.008-3.006l.01-.015a4.06,4.06,0,0,1-.359-2.389l0-.091c.008-.216.014-.44.014-.659A3.181,3.181,0,0,0,12.9,3.617l-.1.1a5.546,5.546,0,0,1,.215,2.131c0,.2,0,.435,0,.654a4.274,4.274,0,0,0,.638,2.21c-.9-.771-1.908-1.561-3.1-2.413h0a2.938,2.938,0,0,1-.546-1.658c-.02-.157-.044-.339-.073-.522A2.743,2.743,0,0,0,8.381,1.926l-.1.118a3.275,3.275,0,0,1,.33,1.285L8.62,3.4c.024.173.048.353.081.542a3.352,3.352,0,0,0,.682,1.525A35.3,35.3,0,0,0,4.554,2.744Z" transform="translate(486.998 287.978)" fill="#fff" stroke="rgba(0,0,0,0)" stroke-width="1"/>
    <path id="Subtraction_2" data-name="Subtraction 2" d="M8.935,21.333a56.308,56.308,0,0,1-8.388-.756l0-.007A35.274,35.274,0,0,1,0,15,18.41,18.41,0,0,1,.42,10.532,6.049,6.049,0,0,1,2.27,7.148C3.8,5.9,7.093,4.78,10.278,3.7l.01,0C13.667,2.542,17.161,1.353,18.619,0a47.969,47.969,0,0,1,.46,11.738c-.472,4.292-1.8,7.143-3.944,8.474C13.934,20.957,11.849,21.333,8.935,21.333ZM16.542,4.364a54.913,54.913,0,0,1-5.47,7.1,54.264,54.264,0,0,1-8.64,8.123l.176.148c.67-.423,1.425-.952,2.307-1.617A2.474,2.474,0,0,1,6,17.887a7.822,7.822,0,0,1,1.336.163h.006c.232.042.462.082.706.118a6.9,6.9,0,0,0,1.007.08,3.661,3.661,0,0,0,2.824-1.115l-.1-.121a2.241,2.241,0,0,1-.635.077,12.125,12.125,0,0,1-1.812-.215l-.027,0L8.9,16.8a5.087,5.087,0,0,0-2.689.3c1.007-.829,2.067-1.79,3.149-2.861l.015.011a2.565,2.565,0,0,1,1.362-.3c.325,0,.673.029,1.011.056h.02c.258.021.511.042.757.052.067,0,.136,0,.2,0a3.121,3.121,0,0,0,2.738-1.305l-.1-.1a2.865,2.865,0,0,1-1.075.149c-.32,0-.664-.02-1.028-.04h-.025c-.2-.012-.437-.026-.662-.034-.064,0-.12,0-.173,0a4.291,4.291,0,0,0-2.066.537c.834-.881,1.672-1.855,2.559-2.979l0,0a2.938,2.938,0,0,1,1.682-.467h.006l.026,0c.158-.013.323-.025.488-.045a2.723,2.723,0,0,0,2.265-1.447l-.109-.1a3.283,3.283,0,0,1-1.309.266l-.092.008c-.164.015-.334.029-.512.05a3.382,3.382,0,0,0-1.558.612,35.326,35.326,0,0,0,2.949-4.692Z" transform="translate(512.039 285.622)" fill="#fff" stroke="rgba(0,0,0,0)" stroke-width="1"/>
    <path id="Subtraction_3" data-name="Subtraction 3" d="M11.982,19a21.7,21.7,0,0,1-6.271-.787,7.675,7.675,0,0,1-4.246-2.8C.19,13.562-.033,9.7,0,6.794A58.645,58.645,0,0,1,.393.86L.4.858A34.137,34.137,0,0,1,7.454,0c3.122,0,5.288.65,6.439,1.932,1.317,1.467,2.6,4.7,3.831,7.83,1.314,3.324,2.674,6.763,4.1,8.153A52.206,52.206,0,0,1,11.982,19Zm-3.806-8.71c.89.767,1.9,1.555,3.091,2.41a3,3,0,0,1,.545,1.663c.021.155.044.335.074.514a2.744,2.744,0,0,0,1.557,2.195l.1-.118a3.289,3.289,0,0,1-.33-1.281l-.009-.068c-.023-.173-.048-.352-.081-.541a3.376,3.376,0,0,0-.682-1.528,35.187,35.187,0,0,0,4.829,2.718l.092-.2a54.9,54.9,0,0,1-7.354-5.119,54.437,54.437,0,0,1-8.53-8.237l-.14.181C1.8,3.534,2.367,4.263,3.066,5.1a3.873,3.873,0,0,1,.181,2.409v.011l-.008.048c-.025.212-.054.43-.076.659a4.112,4.112,0,0,0,1.22,3.78L4.5,11.9a6.272,6.272,0,0,1,.018-2.431c.014-.123.028-.248.044-.375l.009-.085A5.14,5.14,0,0,0,4.14,6.345c.849.943,1.833,1.926,3.009,3.006l-.011.015A4.018,4.018,0,0,1,7.5,11.729v.01c-.009.236-.019.5-.016.765A3.191,3.191,0,0,0,8.92,15.381l.1-.1a5.583,5.583,0,0,1-.21-2.133v-.005l0-.156c0-.161,0-.326,0-.487a4.323,4.323,0,0,0-.637-2.209Z" transform="translate(511.934 310.421)" fill="#fff" stroke="rgba(0,0,0,0)" stroke-width="1"/>
    <path id="Subtraction_4" data-name="Subtraction 4" d="M.647,21.336h0A48.227,48.227,0,0,1,.188,9.594C.658,5.3,1.983,2.451,4.131,1.122,5.333.377,7.423,0,10.34,0a56.327,56.327,0,0,1,8.38.754l0,.007a35.471,35.471,0,0,1,.543,5.566,18.449,18.449,0,0,1-.42,4.475A6.031,6.031,0,0,1,17,14.187c-1.531,1.249-4.829,2.371-8.019,3.457C5.6,18.793,2.107,19.982.647,21.335Zm4.825-9.157h0a35.8,35.8,0,0,0-2.944,4.688l.192.1a55.294,55.294,0,0,1,5.473-7.1,54.486,54.486,0,0,1,8.638-8.122L16.659,1.6c-.693.437-1.448.966-2.311,1.617a2.487,2.487,0,0,1-1.079.224,7.992,7.992,0,0,1-1.34-.161h0l-.018,0c-.221-.039-.448-.079-.689-.114a6.852,6.852,0,0,0-1.007-.08A3.658,3.658,0,0,0,7.387,4.205l.1.118a2.19,2.19,0,0,1,.631-.077,12.311,12.311,0,0,1,1.836.219h.011l.406.067a5.1,5.1,0,0,0,.8.063,5.122,5.122,0,0,0,1.886-.365c-1.021.839-2.081,1.8-3.149,2.862L9.9,7.078a2.533,2.533,0,0,1-1.36.305c-.324,0-.654-.027-1-.056l-.036,0c-.247-.021-.5-.043-.754-.054-.07,0-.134,0-.19,0A3.13,3.13,0,0,0,3.8,8.57l.1.106a2.793,2.793,0,0,1,1.067-.15c.331,0,.7.021,1.049.042l.039,0c.21.012.426.024.638.032.049,0,.1,0,.166,0a4.343,4.343,0,0,0,2.073-.538C8.118,8.924,7.281,9.9,6.37,11.044a2.944,2.944,0,0,1-1.687.465l-.025,0c-.16.013-.327.025-.493.045A2.741,2.741,0,0,0,1.9,13.008l.11.1a3.285,3.285,0,0,1,1.3-.265h0c.182-.016.389-.034.6-.059A3.327,3.327,0,0,0,5.473,12.179Z" transform="translate(489.456 310.437)" fill="#fff" stroke="rgba(0,0,0,0)" stroke-width="1"/>
    <rect id="Rectangle_2927" data-name="Rectangle 2927" width="83.545" height="1.18" transform="translate(543.034 329.295)" fill="#fff"/>
    <rect id="Rectangle_2928" data-name="Rectangle 2928" width="109.596" height="1.18" transform="translate(641.377 329.296)" fill="#fff"/>
  </g>
</svg>
